<?xml version="1.0" standalone="no"?>
<!DOCTYPE svg PUBLIC "-//W3C//DTD SVG 20010904//EN"
 "http://www.w3.org/TR/2001/REC-SVG-20010904/DTD/svg10.dtd">
<svg version="1.0" xmlns="http://www.w3.org/2000/svg"
 width="512.000000pt" height="512.000000pt" viewBox="0 0 512.000000 512.000000"
 preserveAspectRatio="xMidYMid meet">

<g transform="translate(0.000000,512.000000) scale(0.100000,-0.100000)"
fill="#000000" stroke="none">
<path d="M184 5001 c-17 -10 -42 -34 -55 -53 l-24 -33 -3 -2356 -2 -2356 23
-34 c12 -19 38 -42 57 -51 33 -17 167 -18 2380 -18 2213 0 2347 1 2380 18 19
9 45 32 57 51 l23 34 -2 2358 -3 2358 -21 28 c-11 15 -36 38 -54 51 l-33 22
-2346 0 c-2286 0 -2347 -1 -2377 -19z m2631 -142 c283 -29 597 -129 851 -271
129 -71 226 -139 349 -242 50 -41 93 -76 98 -76 4 0 7 10 7 23 0 18 2 19 10 7
5 -8 10 -26 10 -39 0 -16 20 -45 56 -83 52 -54 62 -77 38 -85 -16 -5 -116 115
-108 129 4 7 -3 3 -15 -9 -27 -29 -46 -30 -31 -3 9 16 4 25 -32 59 -270 248
-644 441 -1013 521 -103 22 -304 49 -365 49 l-35 0 30 -16 c39 -20 92 -70 116
-108 17 -27 19 -28 19 -8 0 33 27 55 51 43 35 -19 18 -100 -21 -100 -15 0 -20
-7 -20 -25 0 -31 15 -37 140 -60 132 -23 323 -86 467 -155 116 -55 328 -184
354 -216 7 -8 31 -14 58 -15 43 -1 44 -1 21 -12 -25 -12 -25 -12 56 -90 75
-71 84 -77 106 -67 14 7 28 25 34 43 6 20 20 37 38 46 27 13 31 12 48 -9 17
-21 17 -23 -4 -53 l-22 -30 40 6 c29 5 49 17 77 48 33 37 37 46 37 96 0 32 7
66 16 82 19 32 119 101 148 101 12 0 1 -9 -30 -25 -84 -42 -120 -140 -73 -198
11 -15 24 -49 28 -77 5 -28 17 -61 28 -73 11 -12 46 -60 77 -107 31 -47 61
-91 67 -98 6 -7 33 -56 60 -108 259 -492 334 -1049 214 -1575 -69 -301 -219
-620 -411 -874 -353 -468 -894 -795 -1459 -880 -84 -13 -127 -26 -184 -53 -71
-36 -78 -37 -181 -37 -103 0 -109 1 -181 37 -43 21 -97 39 -129 43 -30 4 -105
17 -165 30 -578 123 -1100 480 -1428 977 -87 132 -122 196 -184 333 -237 523
-265 1098 -81 1649 22 66 63 169 90 228 27 59 46 112 43 118 -4 6 -27 21 -53
35 l-47 24 70 -5 70 -5 28 46 c29 49 33 70 17 80 -21 13 -10 25 12 14 19 -10
24 -9 37 12 9 12 44 61 78 108 35 46 63 91 63 98 0 7 4 12 8 11 4 -2 64 54
132 123 505 510 1158 743 1875 668z m139 -146 c-3 -16 -8 -34 -10 -42 -2 -7 1
-20 7 -27 9 -11 6 -14 -14 -14 -31 0 -44 15 -21 24 13 5 15 15 11 46 -4 35 -3
40 14 40 16 0 18 -5 13 -27z m114 -5 c29 -29 -2 -102 -41 -96 -17 2 -23 11
-25 35 -6 58 33 94 66 61z m86 -50 c-4 -18 -7 -43 -7 -55 1 -24 -12 -29 -37
-13 -11 7 -12 12 -3 18 20 13 33 58 20 71 -8 8 -5 11 12 11 20 0 22 -3 15 -32z
m124 -21 c6 -28 -18 -76 -40 -82 -29 -10 -51 14 -44 48 3 17 11 36 18 44 16
20 62 12 66 -10z m92 -22 c13 -16 7 -60 -12 -82 -17 -20 -56 -16 -63 7 -18 58
40 117 75 75z m90 -40 c0 -3 -7 -22 -15 -41 -8 -20 -13 -40 -10 -44 10 -16
-12 -19 -31 -5 -10 8 -14 15 -7 15 13 0 35 58 27 71 -3 5 4 9 15 9 12 0 21 -2
21 -5z m98 -47 c18 -18 14 -44 -11 -74 -32 -36 -67 -27 -67 18 0 53 47 87 78
56z m100 -69 c2 -17 -6 -37 -22 -55 -20 -24 -28 -27 -43 -18 -43 26 -15 108
35 102 21 -2 28 -9 30 -29z m702 -23 c0 -2 -7 -9 -15 -16 -12 -10 -15 -10 -15
4 0 9 7 16 15 16 8 0 15 -2 15 -4z m-620 -14 c0 -4 -7 -18 -16 -30 -9 -13 -19
-35 -23 -49 l-7 -25 -24 21 c-19 16 -21 20 -9 21 20 0 53 46 44 60 -3 6 3 10
14 10 12 0 21 -3 21 -8z m83 -49 c4 -3 -5 -21 -19 -40 -14 -19 -23 -41 -20
-48 7 -18 -13 -19 -36 -1 -22 16 -23 26 -4 26 19 0 46 38 39 56 -5 14 27 20
40 7z m81 -69 c20 -19 20 -24 0 -52 -33 -48 -84 -51 -84 -4 0 27 35 72 56 72
7 0 20 -7 28 -16z m76 -64 c12 -8 10 -14 -13 -38 -15 -15 -27 -36 -27 -45 0
-23 -13 -21 -35 3 -13 14 -14 20 -5 20 20 0 50 31 50 52 0 20 8 22 30 8z
m-3153 -62 c-3 -7 -5 -2 -5 12 0 14 2 19 5 13 2 -7 2 -19 0 -25z m3229 -9 c3
-6 -6 -23 -20 -38 -14 -15 -26 -35 -26 -44 0 -21 -5 -21 -30 0 -23 20 -27 38
-6 30 8 -3 24 5 37 19 12 13 19 24 15 24 -4 0 -4 5 -1 10 8 13 22 13 31 -1z
m-3434 -114 c13 -17 9 -35 -7 -35 -14 0 -45 48 -45 71 0 12 35 -13 52 -36z
m3858 3 c0 -22 -26 -58 -42 -58 -9 0 -5 18 13 68 10 27 29 20 29 -10z m-3954
-125 c34 -26 56 -71 26 -53 -24 14 -42 30 -82 74 l-35 39 30 -19 c17 -10 44
-29 61 -41z m134 36 c0 -6 -4 -7 -10 -4 -5 3 -10 11 -10 16 0 6 5 7 10 4 6 -3
10 -11 10 -16z m-20 -49 c0 -5 -2 -10 -4 -10 -3 0 -8 5 -11 10 -3 6 -1 10 4
10 6 0 11 -4 11 -10z m3918 -42 c-4 -27 -28 -36 -28 -10 0 20 8 32 22 32 5 0
8 -10 6 -22z m-4063 -8 c3 -5 1 -10 -4 -10 -6 0 -11 5 -11 10 0 6 2 10 4 10 3
0 8 -4 11 -10z m40 -90 c8 -13 -5 -13 -25 0 -13 8 -13 10 2 10 9 0 20 -4 23
-10z m-65 -220 c0 -13 -20 -13 -40 0 -12 8 -9 10 13 10 15 0 27 -4 27 -10z
m160 -2386 c0 -8 -9 -14 -20 -14 -19 0 -27 19 -14 33 10 9 34 -4 34 -19z
m3850 -49 c0 -8 -4 -15 -9 -15 -13 0 -22 16 -14 24 11 11 23 6 23 -9z m-60
-52 c0 -5 -9 -23 -20 -41 -16 -26 -18 -37 -9 -48 18 -22 3 -44 -31 -44 -16 0
-30 4 -30 9 0 22 20 60 44 84 14 15 26 31 26 37 0 5 5 10 10 10 6 0 10 -3 10
-7z m-3730 -50 c0 -22 -30 -27 -48 -9 -16 16 -16 18 2 31 21 16 46 4 46 -22z
m3641 -6 c-13 -13 -26 -3 -16 12 3 6 11 8 17 5 6 -4 6 -10 -1 -17z m-3516 -57
c0 -22 -29 -18 -33 3 -3 14 1 18 15 15 10 -2 18 -10 18 -18z m3616 -18 c-12
-22 -50 -57 -56 -51 -8 9 46 80 56 74 5 -4 6 -13 0 -23z m-3571 -68 c0 -17 8
-28 28 -36 26 -11 26 -12 5 -15 -18 -3 -23 -11 -23 -34 0 -36 -16 -38 -24 -4
-4 15 -18 30 -34 37 l-27 11 25 6 c19 5 26 14 28 39 4 37 22 34 22 -4z m3420
6 c0 -5 -4 -10 -10 -10 -5 0 -10 5 -10 10 0 6 5 10 10 10 6 0 10 -4 10 -10z
m70 0 c0 -5 -7 -10 -15 -10 -8 0 -15 5 -15 10 0 6 7 10 15 10 8 0 15 -4 15
-10z m-150 -35 c0 -8 -7 -15 -15 -15 -8 0 -15 7 -15 15 0 8 7 15 15 15 8 0 15
-7 15 -15z m-3290 -75 c0 -5 -4 -10 -10 -10 -5 0 -10 5 -10 10 0 6 5 10 10 10
6 0 10 -4 10 -10z m3410 -19 c0 -6 -4 -13 -10 -16 -5 -3 -10 1 -10 9 0 9 5 16
10 16 6 0 10 -4 10 -9z m573 -438 l36 -31 -45 -45 -44 -44 -43 43 -44 43 46
49 c36 37 47 44 52 32 4 -9 23 -30 42 -47z"/>
<path d="M2281 4824 c-515 -66 -1031 -333 -1364 -707 -64 -72 -77 -93 -77
-121 0 -35 -19 -53 -37 -35 -7 7 -28 -14 -62 -61 -65 -89 -66 -92 -42 -114 19
-18 21 -17 45 9 15 16 26 36 26 45 0 10 7 23 15 30 8 7 15 19 15 27 0 8 6 13
12 11 7 -3 18 5 23 16 9 18 19 20 57 18 26 -2 49 1 53 8 9 15 -13 40 -31 33
-8 -3 -14 1 -14 10 0 28 21 30 49 3 15 -14 35 -26 45 -26 12 0 16 -5 12 -15
-3 -10 3 -17 20 -21 29 -7 61 17 66 50 2 13 10 20 21 20 18 -2 67 49 67 69 1
13 35 57 44 57 4 0 2 -9 -4 -19 -19 -36 -10 -33 47 17 248 213 616 390 923
442 124 21 117 17 124 61 13 82 64 150 141 188 l40 20 -55 -1 c-30 0 -102 -6
-159 -14z m3 -119 c4 -25 13 -45 19 -46 11 0 -19 -17 -35 -18 -3 -1 -4 16 -1
38 3 23 1 41 -6 45 -15 10 -14 26 3 26 9 0 16 -17 20 -45z m-100 -15 c3 -22
11 -40 16 -40 6 0 10 -4 10 -10 0 -5 -10 -10 -22 -10 -19 0 -23 6 -24 36 0 20
-7 40 -15 45 -12 8 -12 10 1 18 20 14 27 7 34 -39z m-103 -15 c6 -25 16 -45
21 -45 5 0 6 -4 3 -10 -3 -5 -14 -10 -23 -10 -13 0 -17 9 -18 36 0 20 -7 40
-15 45 -12 8 -12 10 1 19 8 5 16 10 17 10 2 0 8 -20 14 -45z m-98 -26 c5 -19
16 -38 25 -43 14 -8 14 -10 -3 -17 -32 -12 -51 -11 -38 2 13 13 0 58 -19 70
-13 8 0 31 15 26 6 -2 15 -19 20 -38z m-84 -2 c20 -25 24 -72 7 -86 -25 -21
-49 -9 -64 31 -12 31 -12 41 -2 53 15 19 44 19 59 2z m-113 -67 c9 -22 21 -40
28 -40 11 -1 -22 -30 -35 -30 -3 0 -4 11 -2 24 3 16 -2 31 -16 45 -12 12 -19
26 -16 31 12 19 25 9 41 -30z m-91 -40 c10 -22 25 -40 34 -40 11 -1 8 -5 -9
-15 -33 -19 -44 -19 -36 1 6 16 -9 54 -27 65 -10 7 -1 29 12 29 4 0 16 -18 26
-40z m-76 -26 c24 -30 27 -54 9 -72 -19 -19 -45 -14 -62 10 -44 62 7 121 53
62z m-109 -69 c12 -19 26 -35 32 -35 6 0 6 -6 -2 -15 -13 -16 -45 -21 -35 -6
8 14 -16 61 -32 61 -14 0 -17 12 -6 23 12 13 21 7 43 -28z m-88 -50 c13 -19
29 -35 36 -35 21 0 13 -16 -13 -28 -23 -11 -25 -10 -25 12 0 14 -10 33 -23 43
-13 10 -22 24 -19 31 7 21 21 13 44 -23z m-83 -25 c28 -14 47 -66 31 -85 -19
-23 -46 -18 -69 11 -24 30 -27 54 -9 72 15 15 24 15 47 2z m-89 -95 c14 -19
31 -33 38 -30 17 6 15 -5 -5 -27 -19 -21 -37 -24 -30 -4 7 18 -20 56 -39 56
-16 0 -16 2 -8 24 9 23 16 20 44 -19z m-76 -66 c14 -17 30 -28 35 -24 19 11
20 -13 1 -30 -22 -20 -21 -21 -38 18 -7 16 -21 31 -32 34 -11 3 -16 11 -13 19
8 21 19 17 47 -17z m-36 -89 c18 0 15 -15 -8 -35 -18 -17 -25 -14 -21 9 3 13
-30 46 -46 46 -15 0 -15 2 -7 25 6 14 11 12 38 -14 18 -17 37 -31 44 -31z
m-83 -40 c10 -11 15 -30 13 -47 -2 -22 -9 -29 -29 -31 -48 -6 -91 75 -53 96
22 12 48 5 69 -18z"/>
<path d="M1850 4631 c0 -24 21 -61 35 -61 18 0 20 41 3 58 -14 14 -38 16 -38
3z"/>
<path d="M1570 4502 c0 -10 6 -27 14 -38 11 -15 17 -16 27 -7 9 9 8 17 -5 37
-19 30 -36 34 -36 8z"/>
<path d="M1303 4344 c-8 -22 33 -62 48 -47 8 8 6 18 -6 37 -20 30 -33 33 -42
10z"/>
<path d="M990 4072 c0 -12 34 -42 48 -42 19 0 14 28 -7 40 -24 12 -41 13 -41
2z"/>
<path d="M2498 4809 c-47 -14 -113 -71 -138 -120 -26 -49 -26 -139 -1 -194 40
-89 146 -143 243 -125 54 11 63 16 116 64 42 39 58 69 66 128 23 157 -131 290
-286 247z m88 -106 c17 -38 30 -42 39 -13 5 15 15 20 43 20 30 -1 34 -3 20
-11 -10 -5 -18 -17 -18 -25 0 -8 -5 -23 -12 -34 -15 -24 -3 -38 21 -23 15 10
23 8 40 -11 25 -26 27 -38 6 -30 -19 8 -75 -17 -75 -34 0 -7 7 -15 15 -18 10
-4 15 -19 15 -43 -1 -34 -1 -35 -16 -16 -8 11 -21 19 -29 17 -7 -1 -16 2 -20
8 -3 5 -13 10 -22 10 -11 0 -14 -6 -9 -26 5 -18 2 -32 -10 -45 -17 -19 -18
-18 -34 28 -18 52 -35 65 -45 34 -5 -16 -15 -21 -38 -21 -27 1 -30 2 -16 13
16 13 32 70 22 80 -3 4 -13 2 -23 -3 -13 -7 -23 -3 -40 15 -22 24 -22 25 -4
25 28 0 74 23 74 36 0 6 -9 18 -20 25 -14 10 -18 21 -14 37 5 19 8 20 18 8 12
-15 86 -32 86 -19 0 4 -5 15 -10 23 -6 10 -3 21 13 38 20 22 22 22 25 5 2 -10
10 -33 18 -50z"/>
<path d="M2605 4640 c10 -11 20 -20 23 -20 3 0 -3 9 -13 20 -10 11 -20 20 -23
20 -3 0 3 -9 13 -20z"/>
<path d="M2632 4590 c0 -14 2 -19 5 -12 2 6 2 18 0 25 -3 6 -5 1 -5 -13z"/>
<path d="M2480 4581 c0 -11 4 -22 9 -25 4 -3 6 6 3 19 -5 30 -12 33 -12 6z"/>
<path d="M2548 4513 c7 -3 16 -2 19 1 4 3 -2 6 -13 5 -11 0 -14 -3 -6 -6z"/>
<path d="M2821 4732 c-16 -30 -14 -72 4 -72 14 0 35 29 35 47 0 5 -6 18 -14
28 -13 18 -14 18 -25 -3z"/>
<path d="M2160 4541 c-325 -69 -628 -220 -897 -449 -37 -32 -59 -62 -77 -104
-31 -70 -31 -68 -8 -66 51 4 54 1 50 -57 -1 -30 -1 -55 2 -55 2 0 13 11 25 23
28 33 169 155 240 209 137 103 328 202 494 258 104 35 307 80 362 80 20 0 39
3 42 6 4 4 -7 24 -24 45 -16 21 -37 58 -45 83 -14 42 -19 46 -47 45 -18 0 -70
-8 -117 -18z m30 -52 c0 -6 7 -8 16 -5 14 6 15 4 4 -10 -11 -13 -11 -17 -1
-23 10 -7 11 -13 1 -31 -11 -21 -12 -21 -31 -4 -15 14 -17 20 -6 32 9 12 9 16
0 19 -7 2 -9 11 -6 19 6 17 23 19 23 3z m-90 -64 c15 -55 7 -71 -10 -19 -10
30 -14 34 -22 21 -5 -9 -15 -14 -24 -10 -14 5 -15 1 -9 -28 10 -46 -10 -26
-23 23 -11 40 -5 52 18 37 22 -13 28 -11 35 11 9 29 20 18 35 -35z m-165 -24
c-16 -32 -4 -44 14 -13 16 26 13 9 -5 -34 l-16 -39 -20 49 c-18 46 -17 77 1
47 7 -11 11 -9 21 9 6 12 14 19 17 17 2 -3 -3 -19 -12 -36z m-104 -31 c23 0
24 -10 4 -36 -15 -18 -15 -18 -13 0 2 10 -3 21 -11 24 -11 4 -12 -1 -7 -19 18
-57 16 -74 -4 -34 -24 50 -26 80 -4 71 9 -3 24 -6 35 -6z m-101 -71 c11 -8 7
-9 -18 -6 -42 5 -37 -15 7 -24 44 -9 51 -19 13 -19 -24 0 -30 -4 -26 -15 4 -8
3 -15 0 -15 -5 0 -46 74 -46 85 0 9 55 5 70 -6z m-144 -55 c-5 -17 -3 -23 4
-19 5 3 10 13 10 21 0 8 5 14 11 14 7 0 8 -7 3 -17 -4 -10 -7 -33 -7 -50 1
-18 0 -33 -2 -33 -3 0 -55 90 -55 96 0 1 8 5 18 7 9 3 19 5 21 6 2 0 0 -11 -3
-25z m-78 -70 c7 4 10 -6 9 -29 -2 -36 -17 -50 -17 -15 0 14 -7 20 -21 20 -15
0 -19 4 -15 16 3 9 6 21 6 27 0 6 6 3 13 -8 8 -10 19 -15 25 -11z m-108 -47
c0 -8 -10 -18 -22 -24 l-23 -10 23 -7 c12 -4 22 -14 22 -22 0 -12 4 -12 25 2
34 22 32 3 -3 -23 l-28 -21 -11 29 c-6 16 -18 29 -27 29 -23 0 -20 11 12 37
32 27 32 27 32 10z m-100 -96 c0 -23 6 -32 28 -39 l27 -10 -27 -1 c-24 -1 -28
-5 -28 -31 0 -40 -18 -38 -22 3 -2 25 -8 32 -25 32 -13 0 -23 5 -22 10 0 6 11
9 24 7 22 -3 25 0 25 27 0 17 5 31 10 31 6 0 10 -13 10 -29z"/>
<path d="M2810 4546 c0 -24 -38 -97 -67 -128 -29 -31 -27 -32 72 -43 90 -10
248 -49 357 -89 91 -32 268 -116 295 -138 7 -6 20 -8 28 -4 9 3 15 0 15 -9 0
-8 21 -28 48 -46 65 -44 82 -60 76 -70 -5 -9 -131 74 -146 96 -4 5 -8 6 -8 1
0 -5 -6 -4 -12 1 -37 28 -197 106 -293 141 -155 58 -265 83 -455 106 -19 2
-50 -3 -69 -10 -44 -19 -133 -18 -179 1 -33 14 -47 14 -147 0 -394 -58 -722
-219 -1007 -497 -74 -71 -136 -159 -90 -127 10 8 43 40 72 72 50 55 90 74 90
42 0 -8 5 -15 10 -15 6 0 10 15 10 33 0 44 13 60 90 106 73 45 85 38 54 -30
-9 -22 -14 -42 -11 -46 4 -3 7 1 7 10 0 22 16 22 24 1 7 -18 -1 -37 -13 -30
-4 3 -6 -8 -3 -23 2 -16 -3 -42 -12 -59 -9 -17 -16 -43 -16 -58 0 -15 -11 -42
-25 -60 -30 -39 -15 -57 20 -24 31 29 51 18 29 -16 l-16 -24 121 0 122 0 57
39 c132 89 311 164 474 197 l88 18 -24 26 c-29 30 -65 106 -66 138 0 27 4 26
-96 2 -155 -37 -295 -95 -424 -178 -77 -48 -83 -59 -50 -90 18 -17 19 -21 6
-32 -12 -9 -13 -17 -5 -31 8 -16 6 -21 -15 -28 -13 -6 -26 -15 -28 -22 -2 -6
-21 -12 -42 -14 -30 -2 -41 3 -53 21 -8 13 -21 24 -27 24 -8 0 -12 18 -12 50
0 35 4 50 13 50 7 0 13 10 13 21 0 17 4 20 22 16 12 -4 29 -1 37 6 11 9 15 9
18 0 7 -20 40 -15 46 6 5 21 62 60 164 113 35 18 63 36 63 41 0 4 -15 14 -33
23 -32 15 -36 15 -78 -6 -24 -13 -68 -38 -97 -57 -30 -19 -59 -32 -64 -31 -10
4 58 48 158 103 l51 29 47 -28 c42 -25 51 -26 77 -16 16 7 29 13 29 14 0 24
-37 114 -52 126 -18 14 -19 20 -9 39 16 30 55 25 59 -8 2 -13 -1 -27 -7 -30
-7 -5 -5 -24 6 -61 10 -30 18 -57 19 -58 4 -5 74 18 74 24 0 3 -11 51 -25 106
-35 135 -26 149 10 18 16 -58 32 -109 36 -113 4 -5 16 -6 27 -3 19 6 19 8 -5
104 -13 53 -22 106 -20 117 1 11 15 -31 31 -92 27 -109 29 -113 55 -112 58 2
72 12 90 67 36 105 120 171 227 180 121 10 241 -81 268 -203 7 -29 10 -31 138
-62 90 -23 164 -49 239 -86 60 -29 109 -49 109 -45 0 4 13 23 30 41 l30 34
-35 19 c-27 14 -37 16 -47 6 -18 -18 -30 -14 -26 10 2 17 -5 25 -35 36 -33 13
-39 13 -55 -2 -38 -34 -112 -5 -112 44 0 20 -15 26 -118 49 -47 10 -58 16 -45
24 4 2 43 -4 86 -14 l78 -19 29 21 c41 31 77 19 97 -30 18 -45 84 -84 105 -63
18 18 27 15 21 -7 -3 -13 6 -24 34 -41 l38 -23 50 28 50 27 -42 -41 c-24 -23
-43 -47 -43 -54 0 -7 -3 -22 -6 -34 -9 -33 19 -39 54 -13 17 12 35 19 41 16
13 -8 81 20 81 33 0 6 -4 11 -9 11 -5 0 -14 14 -20 30 -5 17 -8 30 -6 30 13 0
75 -44 75 -53 0 -6 14 2 30 18 20 19 30 39 30 58 0 42 16 65 56 82 20 8 34 20
32 27 -7 20 -182 133 -300 193 -184 95 -422 173 -577 191 -53 6 -61 4 -61 -10z
m153 -56 c6 0 2 -7 -9 -15 -14 -11 -16 -15 -4 -15 12 -1 12 -3 -2 -14 -10 -7
-18 -18 -18 -24 0 -23 -21 -23 -40 0 -25 30 -25 37 5 48 14 5 25 15 25 21 0 6
7 8 16 5 9 -3 21 -6 27 -6z m106 -59 c-6 -2 -15 3 -20 10 -6 10 -11 6 -18 -14
-6 -16 -11 -33 -11 -38 0 -5 -4 -9 -10 -9 -12 0 -12 0 1 41 6 19 13 40 15 48
3 11 11 8 30 -10 15 -14 21 -25 13 -28z m113 -24 c8 -15 7 -22 -5 -28 -9 -6
-13 -18 -10 -31 4 -22 4 -22 -8 -3 -18 30 -18 30 -35 9 -12 -15 -14 -15 -11
-3 3 10 11 35 18 58 10 33 15 39 26 29 8 -6 19 -20 25 -31z m138 -22 c0 -2
-14 -11 -30 -20 -29 -15 -30 -16 -15 -45 17 -33 18 -40 7 -40 -10 0 -48 78
-41 83 23 17 79 33 79 22z m-10 -45 c0 -5 -4 -10 -10 -10 -5 0 -10 5 -10 10 0
6 5 10 10 10 6 0 10 -4 10 -10z m129 -46 c1 -7 -9 -15 -21 -19 -14 -4 -18 -8
-10 -12 20 -8 14 -20 -13 -25 -16 -4 -25 -1 -25 8 0 7 -3 20 -6 28 -5 12 -2
15 10 10 11 -4 16 -1 16 11 0 10 8 24 18 31 14 10 18 10 24 -4 4 -9 7 -22 7
-28z m129 -36 c17 -17 15 -73 -2 -87 -24 -20 -69 -9 -85 20 -13 24 -13 29 2
53 19 28 63 36 85 14z m-1705 -113 c14 -41 14 -45 -1 -49 -10 -3 -53 -26 -96
-51 -44 -25 -84 -45 -90 -45 -14 1 51 42 127 81 46 24 57 34 52 47 -11 26 -18
62 -12 62 3 0 12 -20 20 -45z m1405 27 c2 -7 -5 -12 -17 -12 -14 0 -19 5 -14
15 6 17 25 15 31 -3z m396 3 c3 -8 13 -15 22 -15 14 0 14 -3 4 -15 -10 -12
-16 -13 -27 -4 -11 9 -19 7 -38 -11 -31 -29 -32 -20 -2 25 24 38 32 42 41 20z
m-1359 -255 c-4 -6 -64 -10 -146 -10 l-140 0 -65 -46 c-52 -37 -64 -51 -64
-73 0 -32 -16 -51 -45 -51 -27 0 -45 18 -45 47 0 26 39 56 62 48 8 -3 45 16
84 44 l69 50 148 0 c96 1 146 -2 142 -9z"/>
<path d="M2895 4450 c-3 -5 -1 -10 4 -10 6 0 11 5 11 10 0 6 -2 10 -4 10 -3 0
-8 -4 -11 -10z"/>
<path d="M3145 4400 c-3 -5 -1 -10 4 -10 6 0 11 5 11 10 0 6 -2 10 -4 10 -3 0
-8 -4 -11 -10z"/>
<path d="M3506 4247 c-27 -20 -18 -61 15 -65 39 -5 56 21 35 53 -19 29 -25 30
-50 12z m34 -32 c0 -8 -4 -15 -9 -15 -13 0 -22 16 -14 24 11 11 23 6 23 -9z"/>
<path d="M1824 3795 c-4 -9 -2 -21 4 -27 15 -15 44 -1 40 19 -4 23 -36 29 -44
8z"/>
<path d="M2466 4270 c-93 -47 -130 -110 -124 -216 3 -62 8 -79 35 -116 63 -88
178 -120 273 -77 92 42 135 108 134 209 0 71 -15 108 -61 154 -64 65 -178 85
-257 46z m209 -38 c118 -83 114 -266 -8 -336 -57 -32 -96 -39 -149 -26 -119
30 -190 164 -144 274 19 46 80 102 124 115 59 16 131 5 177 -27z"/>
<path d="M2544 4183 c-49 -51 -84 -123 -84 -173 0 -58 42 -100 100 -100 33 0
48 6 71 29 41 42 39 84 -8 152 -26 38 -37 65 -38 91 0 21 -1 38 -2 38 -1 0
-18 -17 -39 -37z m88 -150 c7 -25 -1 -43 -18 -43 -16 0 -17 5 -8 38 8 26 20
29 26 5z"/>
<path d="M1980 4166 c0 -8 4 -17 9 -20 11 -7 33 18 24 27 -12 12 -33 7 -33 -7z"/>
<path d="M3090 4146 c-19 -23 -8 -61 18 -64 44 -7 67 32 36 62 -19 20 -38 20
-54 2z"/>
<path d="M3777 4121 c-24 -40 -22 -77 5 -95 31 -22 46 -20 51 7 3 16 5 13 6
-10 0 -18 -3 -33 -9 -33 -5 0 -14 -10 -21 -21 -9 -17 -8 -23 2 -30 22 -14 49
-10 49 6 0 8 9 15 20 15 22 0 27 15 8 23 -8 3 -6 6 5 6 20 1 23 -19 5 -38 -11
-10 -7 -10 17 -1 64 24 63 28 -31 117 -49 46 -89 83 -89 83 0 0 -8 -13 -18
-29z"/>
<path d="M4077 4062 c-22 -24 -21 -32 1 -32 21 0 42 18 42 37 0 19 -24 16 -43
-5z"/>
<path d="M2805 3995 c-9 -33 -30 -71 -51 -94 l-35 -39 43 -7 c73 -12 201 -46
247 -66 l44 -19 36 33 c20 18 45 39 57 47 11 8 26 26 33 39 l13 23 11 -22 c19
-37 44 -48 64 -28 9 10 15 19 12 22 -2 2 -40 22 -84 43 -97 49 -207 86 -347
117 -25 6 -27 3 -43 -49z m298 -67 c22 -35 -36 -66 -63 -33 -10 12 -37 15
-121 15 -66 0 -109 4 -109 10 0 6 45 10 114 10 70 0 117 4 121 11 10 15 46 7
58 -13z"/>
<path d="M3057 3924 c-8 -8 1 -24 14 -24 5 0 9 7 9 15 0 15 -12 20 -23 9z"/>
<path d="M4053 3999 c-24 -9 -31 -33 -12 -45 14 -9 42 19 37 39 -2 11 -9 12
-25 6z"/>
<path d="M4276 3959 c-74 -65 -63 -110 47 -196 9 -7 21 -13 27 -13 16 0 12 17
-7 24 -15 6 -15 7 1 19 9 7 20 26 25 42 l9 30 7 -32 c4 -18 14 -38 21 -44 9
-7 14 -31 14 -61 0 -30 4 -47 10 -43 6 3 10 -1 10 -10 0 -8 -7 -18 -15 -21 -8
-4 -15 -16 -15 -29 0 -12 -7 -28 -15 -35 -20 -16 -17 -121 3 -128 8 -2 10 2 5
14 -5 13 -3 16 10 11 13 -5 22 4 38 34 11 23 19 43 16 45 -2 2 -16 -7 -32 -22
-22 -20 -30 -23 -36 -12 -13 20 -11 23 27 41 22 11 32 22 28 29 -5 8 -2 9 11
5 16 -7 17 -3 12 39 l-5 46 20 -33 c16 -26 19 -46 16 -96 -2 -34 -1 -58 2 -52
11 18 32 -18 25 -42 -6 -17 -9 -19 -16 -8 -7 11 -21 1 -59 -41 -40 -44 -49
-60 -44 -80 8 -38 21 -46 44 -25 14 12 18 25 14 42 -7 27 9 51 44 64 29 11 62
-5 62 -31 0 -21 -35 -50 -60 -50 -9 0 -31 -15 -49 -34 l-32 -33 20 -59 c49
-146 83 -324 62 -324 -6 0 -13 10 -15 23 -44 208 -80 327 -102 340 -9 5 -12
16 -9 28 3 10 2 26 -3 35 -8 14 -13 10 -31 -20 -12 -19 -20 -40 -17 -45 4 -5
2 -12 -3 -15 -11 -7 8 -76 22 -76 5 0 11 9 14 20 3 11 9 20 14 20 13 0 11 -24
-3 -38 -9 -9 -9 -12 1 -12 7 0 9 -4 6 -10 -3 -5 2 -10 12 -11 16 0 15 -2 -4
-16 -13 -8 -23 -22 -23 -30 0 -8 -11 -30 -24 -49 -21 -31 -22 -39 -13 -79 11
-46 3 -71 -13 -45 -6 8 -10 25 -10 37 0 12 -4 24 -9 27 -11 7 -83 -49 -74 -57
3 -4 -6 -12 -21 -18 -14 -7 -26 -18 -26 -26 0 -7 -6 -13 -12 -13 -7 0 -5 -5 5
-11 9 -5 22 -7 27 -4 13 8 13 -1 -2 -42 -15 -41 -25 -42 -25 -3 0 44 -11 49
-39 17 -27 -32 -33 -70 -9 -61 8 4 21 1 29 -5 7 -6 42 -12 77 -13 65 -3 77
-10 78 -50 1 -11 -4 -15 -13 -12 -18 7 -31 -15 -17 -29 6 -6 11 -19 11 -29 0
-16 -6 -17 -53 -12 -56 7 -99 -7 -127 -41 -13 -16 -11 -16 24 -1 35 15 40 14
76 -4 22 -11 48 -20 60 -20 33 0 42 -42 31 -133 -5 -43 -16 -86 -24 -95 -9
-11 -16 -50 -20 -112 -4 -70 -16 -127 -44 -220 l-39 -125 -38 2 c-41 3 -41 2
-21 -62 4 -13 -4 -35 -22 -63 -28 -43 -28 -43 -31 -16 -2 16 -11 34 -20 40
-16 12 -16 13 1 19 26 11 21 41 -13 77 -16 17 -30 37 -30 43 0 7 -7 15 -15 18
-12 5 -11 14 7 58 20 46 23 50 35 33 7 -9 16 -15 19 -11 11 11 -3 34 -24 39
-17 5 -25 -6 -51 -70 l-30 -76 27 -30 c15 -17 34 -31 42 -31 8 0 16 -8 18 -17
2 -10 -1 -18 -7 -18 -16 0 -13 -46 3 -60 18 -14 10 -40 -11 -40 -12 0 -14 -8
-9 -34 6 -31 4 -35 -16 -38 -15 -2 -23 -10 -23 -23 0 -17 -6 -20 -35 -17 -26
2 -39 -3 -52 -20 -16 -20 -20 -21 -31 -7 -19 23 -44 30 -58 13 -9 -11 -15 -11
-25 -3 -8 6 -12 15 -9 19 3 4 -2 13 -9 19 -18 15 -30 -2 -22 -32 7 -30 59 -57
108 -57 36 0 39 -2 27 -16 -10 -13 -10 -17 1 -24 7 -4 19 -6 26 -3 18 7 28
-16 13 -33 -7 -8 -24 -14 -38 -12 -14 2 -26 -1 -26 -7 0 -5 -14 -35 -32 -65
-39 -69 -138 -171 -188 -195 -22 -10 -44 -22 -49 -27 -6 -4 -22 -18 -36 -29
-76 -64 -322 -200 -385 -212 -16 -3 -38 -9 -48 -13 -15 -5 -17 -3 -12 17 3 13
0 42 -8 63 l-13 39 -83 -94 c-96 -110 -93 -114 48 -74 413 116 814 414 1020
760 23 39 56 93 73 120 68 110 149 325 189 505 17 76 22 142 26 323 3 125 9
227 13 227 11 0 20 -27 20 -63 l0 -31 35 41 c43 50 166 99 224 88 49 -9 114
-48 145 -87 l26 -33 0 32 c0 53 -29 261 -51 357 -66 296 -190 574 -367 819
-35 49 -61 95 -58 103 9 24 -10 15 -58 -27z m44 -98 c0 -21 -37 -58 -47 -47
-5 4 0 12 10 17 22 13 24 54 2 45 -44 -18 -50 -17 -27 3 19 16 28 18 43 11 10
-6 19 -19 19 -29z m281 -541 c43 -23 5 -80 -53 -80 -34 0 -56 33 -37 57 25 29
61 38 90 23z m-105 -117 c-10 -10 -19 5 -10 18 6 11 8 11 12 0 2 -7 1 -15 -2
-18z m144 13 c0 -2 3 -11 6 -19 4 -10 -7 -17 -40 -26 -25 -6 -46 -16 -46 -22
0 -5 -4 -7 -10 -4 -5 3 -10 15 -10 26 0 13 7 19 24 19 33 0 57 10 50 21 -3 5
2 9 10 9 9 0 16 -2 16 -4z m25 -116 c0 -8 -16 -18 -35 -23 -19 -5 -38 -14 -42
-20 -6 -9 -11 -8 -18 3 -17 27 -11 36 27 37 21 1 39 6 41 13 5 15 27 7 27 -10z
m-245 -30 c0 -5 -7 -10 -16 -10 -8 0 -12 5 -9 10 3 6 10 10 16 10 5 0 9 -4 9
-10z m30 -44 c0 -2 -3 -12 -6 -21 -5 -11 -9 -13 -14 -5 -3 6 -14 8 -23 4 -9
-3 -14 -11 -11 -16 4 -6 1 -9 -7 -6 -24 8 -22 36 3 41 34 6 58 8 58 3z m238
-8 c22 -22 13 -48 -21 -63 -44 -18 -76 -9 -84 23 -4 18 -1 29 12 39 23 16 77
17 93 1z m-228 -78 c0 -6 -12 -15 -26 -20 -33 -13 -34 -13 -34 4 0 13 9 17 53
25 4 0 7 -4 7 -9z m248 -42 c2 -12 -9 -17 -42 -22 -26 -4 -46 -12 -46 -17 0
-6 -4 -7 -10 -4 -5 3 -10 17 -10 30 0 21 3 23 40 18 28 -4 40 -2 40 7 0 17 24
7 28 -12z m-229 -58 c-6 -5 -9 -15 -6 -24 4 -9 3 -16 -2 -16 -9 0 -21 47 -14
54 3 3 12 2 20 -1 11 -4 12 -8 2 -13z m-209 -5 c0 -8 -8 -15 -17 -16 -16 0
-16 -1 1 -8 14 -5 16 -10 8 -15 -7 -4 -16 -4 -22 -1 -11 7 -13 38 -3 48 12 13
33 7 33 -8z m69 -12 l-1 -28 -8 25 -8 25 -2 -25 -2 -25 -8 25 c-8 24 -8 24 -9
3 -1 -31 -21 -29 -21 2 0 21 5 25 30 25 26 0 30 -3 29 -27z m50 0 c-2 -24 -2
-25 -6 -5 -2 12 -8 22 -13 22 -5 0 -11 -10 -13 -22 -4 -20 -4 -19 -6 5 -1 21
4 27 19 27 15 0 20 -6 19 -27z m50 0 c0 -16 -3 -22 -6 -15 -8 19 -26 14 -18
-5 5 -15 4 -16 -7 -5 -11 11 -10 16 5 27 13 10 15 14 5 18 -8 4 -7 6 5 6 12 1
17 -6 16 -26z m101 12 c0 -8 -8 -15 -17 -16 -15 0 -15 -2 2 -9 19 -8 19 -9 -2
-9 -22 -1 -32 26 -16 42 12 13 33 7 33 -8z m-549 -1288 l-24 -22 19 27 c10 14
21 24 23 22 3 -3 -6 -15 -18 -27z m-42 -11 c-15 -13 -49 -25 -49 -17 0 5 8 12
18 14 24 6 36 8 31 3z"/>
<path d="M4534 3286 c-18 -14 -18 -15 -1 -22 21 -8 67 10 67 26 0 15 -43 12
-66 -4z"/>
<path d="M4614 2996 c-18 -14 -18 -15 -1 -22 22 -8 71 12 62 26 -9 14 -38 12
-61 -4z"/>
<path d="M1112 3938 c-14 -14 -16 -28 -3 -28 9 0 24 30 18 36 -2 2 -9 -2 -15
-8z"/>
<path d="M1161 3891 l-24 -19 21 -11 c21 -11 42 2 22 14 -7 5 -5 12 7 21 10 7
14 13 8 13 -5 1 -21 -8 -34 -18z"/>
<path d="M1207 3893 c-4 -3 -7 -11 -7 -17 0 -6 5 -5 12 2 6 6 9 14 7 17 -3 3
-9 2 -12 -2z"/>
<path d="M884 3843 c-53 -53 -141 -192 -156 -246 -11 -44 -10 -49 20 -108 29
-55 32 -71 32 -148 l0 -86 74 -77 c107 -111 146 -204 146 -350 0 -45 6 -70 25
-102 14 -24 31 -64 39 -91 l15 -48 -40 -45 c-103 -117 -145 -305 -103 -466 33
-128 120 -252 195 -278 16 -5 29 -14 29 -19 0 -22 64 -79 95 -85 39 -7 46 -14
63 -65 12 -35 11 -40 -26 -95 -47 -71 -56 -110 -57 -234 0 -83 3 -100 25 -139
28 -50 50 -64 50 -31 0 11 9 69 21 128 15 78 26 112 42 125 11 10 24 14 28 10
6 -7 29 -100 100 -416 19 -86 38 -122 69 -132 27 -9 70 19 70 45 0 10 -13 97
-29 192 -54 322 -52 377 9 180 24 -76 43 -117 76 -162 49 -65 125 -126 182
-146 41 -14 102 -18 102 -6 0 8 -97 133 -137 176 -21 22 -27 37 -24 65 4 47
-26 141 -77 242 -1 4 13 16 33 28 39 23 39 22 49 -40 15 -91 117 -199 202
-215 58 -11 59 7 1 82 -36 47 -53 80 -55 103 -1 18 -7 41 -12 51 -15 28 -12
37 13 44 13 3 41 18 63 32 44 30 105 34 219 15 139 -25 377 3 498 57 73 33
116 33 202 1 l60 -22 -1 -71 c-1 -57 -8 -86 -34 -144 -39 -87 -32 -107 24 -73
43 27 89 84 116 142 22 49 27 159 10 205 -6 15 -9 28 -7 31 2 2 42 -5 88 -15
73 -15 84 -20 81 -37 -13 -94 -13 -146 2 -203 10 -41 13 -68 6 -80 -18 -33
-80 -207 -80 -224 0 -61 130 33 178 129 49 97 62 158 62 291 0 82 -5 144 -15
175 -8 26 -11 47 -7 47 4 0 15 -27 25 -59 14 -43 33 -74 72 -115 41 -44 54
-66 59 -99 26 -178 32 -202 46 -202 41 0 70 144 56 278 -6 53 -15 77 -48 128
-59 91 -104 148 -155 197 -48 46 -48 62 -2 62 32 0 89 25 89 39 0 5 20 16 44
25 25 10 61 35 80 57 20 21 44 39 54 39 33 0 116 50 170 103 62 61 117 164
133 252 18 95 6 227 -29 320 -33 90 -39 130 -17 121 26 -10 123 137 171 257
22 58 24 70 13 84 -12 14 -12 16 2 11 23 -9 48 112 56 263 l6 117 -43 28
c-143 96 -185 112 -234 89 -16 -7 -18 -5 -14 13 8 29 -8 37 -118 58 -196 37
-423 -9 -593 -120 -110 -71 -106 -63 -92 -224 7 -75 15 -153 17 -172 4 -25 2
-31 -5 -20 -15 23 -30 123 -37 239 l-7 107 49 42 c108 92 300 164 478 178 73
5 213 -10 294 -32 37 -10 27 23 -10 35 -228 72 -539 19 -750 -127 -91 -63 -92
-65 -85 -209 4 -71 9 -150 12 -178 5 -50 5 -50 -9 -19 -8 17 -31 43 -51 58
-52 40 -69 73 -75 140 l-5 59 -60 22 c-58 22 -170 47 -267 60 -43 6 -48 9 -48
32 l0 26 84 -7 c73 -5 209 -41 309 -81 11 -5 17 -2 17 7 0 14 -124 79 -151 78
-18 0 -29 18 -22 38 6 16 30 15 40 -2 11 -20 94 -66 118 -66 25 0 52 70 32 82
-19 12 -24 10 -32 -14 -8 -22 -8 -22 -12 4 -5 29 -36 44 -163 72 -87 20 -143
21 -213 5 -51 -12 -66 -11 -120 3 -73 18 -146 12 -285 -27 -87 -25 -353 -151
-359 -171 -2 -7 41 -9 134 -6 117 3 152 8 233 33 52 16 100 29 107 29 25 0 13
-19 -17 -25 l-30 -7 0 -136 c0 -75 4 -144 9 -151 14 -22 -6 -53 -32 -49 -28 4
-34 34 -12 58 14 16 16 37 13 142 -3 137 -2 135 -73 102 l-30 -14 43 5 c28 4
41 2 37 -5 -3 -5 -11 -10 -17 -10 -5 0 -46 -16 -90 -35 -89 -38 -223 -124
-283 -182 -36 -35 -37 -38 -18 -41 12 -2 39 1 59 7 30 8 48 6 98 -10 33 -11
79 -32 102 -45 36 -21 43 -22 54 -9 16 19 26 12 33 -24 4 -19 17 -36 34 -45
15 -8 40 -25 55 -38 79 -68 78 -68 78 -33 0 36 20 31 21 -5 2 -51 4 -55 21
-58 9 -2 28 4 41 13 24 15 26 15 49 -9 32 -34 62 -38 66 -8 4 27 42 31 49 4 3
-14 15 -19 49 -21 38 -2 44 1 44 18 0 11 5 23 10 26 9 5 14 -21 13 -62 -1 -12
88 -73 105 -73 22 0 70 -65 88 -117 23 -70 62 -143 76 -143 5 0 26 -7 45 -17
29 -13 36 -14 43 -2 7 11 10 10 16 -4 3 -9 12 -17 19 -17 7 0 18 -14 24 -32
10 -28 24 -32 27 -7 1 5 2 12 3 17 1 4 13 -17 27 -45 13 -29 30 -54 37 -54 7
-1 26 -2 42 -4 17 -1 40 -6 53 -10 16 -5 22 -3 22 6 0 8 7 27 15 43 15 28 14
32 -5 58 -33 44 -27 65 21 73 30 5 43 13 50 32 9 25 18 24 50 -4 14 -11 18
-11 28 1 9 11 7 18 -12 32 -38 31 -138 146 -153 179 l-15 30 26 -30 c15 -16
51 -58 81 -92 46 -52 164 -153 179 -153 2 0 30 -16 60 -36 l56 -35 33 20 c37
23 46 25 46 11 0 -5 -11 -12 -25 -16 -14 -3 -30 -15 -36 -26 -10 -19 -12 -18
-55 7 -24 14 -49 23 -55 20 -12 -8 46 -53 79 -62 33 -8 27 -30 -14 -43 -50
-17 -121 -3 -153 29 -33 33 -51 27 -51 -16 -1 -36 -1 -37 -16 -18 -12 15 -14
34 -11 73 4 39 2 52 -8 52 -17 0 -25 -22 -25 -68 0 -20 -9 -50 -20 -67 -26
-39 -35 -123 -21 -193 10 -52 9 -62 -9 -99 -11 -23 -20 -51 -20 -63 0 -13 -7
-20 -19 -20 -10 0 -38 -7 -61 -15 -46 -16 -60 -14 -42 7 5 7 20 45 32 85 22
73 50 115 50 77 1 -18 1 -18 15 0 20 26 19 40 -1 32 -14 -5 -15 -4 -5 8 7 8
11 25 9 38 -2 18 -13 24 -58 33 -66 14 -100 31 -166 83 -93 73 -246 152 -294
152 -26 0 -25 4 7 47 22 29 28 49 31 102 3 56 0 71 -20 101 -13 19 -36 41 -51
50 -25 14 -30 13 -66 -6 -37 -20 -39 -20 -61 -2 -28 23 -144 25 -213 4 l-47
-14 -79 92 c-82 94 -170 173 -268 239 -52 35 -59 37 -135 37 -77 0 -81 -1
-111 -32 -37 -40 -118 -163 -136 -206 -28 -66 5 -79 84 -32 52 31 113 40 119
18 12 -42 43 -303 42 -353 l-1 -59 -93 -62 c-101 -67 -121 -87 -122 -120 0
-36 24 -47 95 -42 36 2 65 1 65 -3 0 -13 -29 -31 -40 -24 -26 16 -160 -101
-160 -139 0 -19 -9 -30 -37 -45 -74 -36 -78 -36 -93 11 -7 24 -13 70 -14 103
-3 99 -58 197 -127 225 -46 20 -62 7 -55 -43 4 -30 3 -36 -3 -22 -19 39 -11
74 24 121 19 25 35 54 35 64 0 36 -67 52 -124 30 -24 -9 -26 -7 -36 33 -6 23
-15 59 -22 79 -7 25 -9 77 -5 151 7 111 6 115 -18 148 -84 116 -80 106 -80
198 0 72 5 96 29 151 34 78 42 121 27 149 -7 12 -14 51 -18 89 -8 92 -22 114
-97 156 -82 46 -106 46 -152 -1z m115 -14 c37 -22 37 -35 -1 -20 -25 9 -57 41
-42 41 5 0 24 -9 43 -21z m1451 -211 c0 -162 2 -194 16 -209 32 -35 -6 -98
-41 -69 -17 14 -20 56 -5 65 6 4 10 83 10 206 0 126 4 199 10 199 6 0 10 -71
10 -192z m-60 -38 c0 -80 1 -150 0 -156 0 -18 -31 -26 -46 -13 -20 17 -17 47
6 61 19 12 20 24 21 173 1 110 4 148 9 120 5 -22 9 -105 10 -185z m-1340 186
c0 -2 7 -20 15 -40 21 -50 2 -45 -29 8 -31 54 -32 60 -6 46 11 -6 20 -12 20
-14z m40 -2 c6 -14 10 -45 10 -70 0 -25 7 -61 15 -81 20 -48 19 -62 -10 -126
-33 -71 -59 -96 -42 -40 6 21 19 51 30 66 13 19 17 36 13 55 -4 15 -9 50 -12
77 -3 28 -11 70 -19 94 -18 53 -18 51 -5 51 6 0 15 -12 20 -26z m2488 -51 c-4
-22 -22 -20 -26 1 -2 10 3 16 13 16 10 0 15 -7 13 -17z m-2585 -28 c15 -13 27
-26 27 -29 0 -2 -16 -14 -35 -26 -40 -25 -43 -39 -15 -65 11 -10 20 -13 20 -8
0 6 -7 16 -15 23 -8 7 -12 17 -9 22 9 14 37 -31 30 -49 -4 -8 -1 -22 5 -30 16
-18 3 -29 -16 -13 -12 10 -15 10 -15 -4 0 -28 -16 -17 -27 19 -8 26 -8 33 0
28 7 -3 1 6 -13 21 l-25 28 24 19 c13 11 31 24 40 29 14 8 14 11 -3 27 -18 16
-18 16 -7 1 8 -11 9 -18 3 -18 -16 0 -23 16 -16 34 8 21 14 20 47 -9z m1527
-15 c0 -16 -4 -30 -10 -30 -5 0 -10 14 -10 30 0 17 5 30 10 30 6 0 10 -13 10
-30z m1520 -1 c0 -5 -7 -9 -15 -9 -15 0 -20 12 -9 23 8 8 24 -1 24 -14z m-565
-9 c-3 -5 -11 -10 -16 -10 -6 0 -7 5 -4 10 3 6 11 10 16 10 6 0 7 -4 4 -10z
m-2447 -70 c7 -18 7 -30 1 -30 -5 0 -9 1 -9 3 0 1 -4 17 -9 35 -12 40 3 33 17
-8z m2513 20 l58 0 37 -67 c20 -38 50 -92 67 -121 l29 -53 24 22 25 23 25 -26
c25 -24 25 -26 10 -56 -20 -38 -20 -90 -2 -159 13 -50 13 -52 -10 -74 -13 -12
-34 -37 -46 -55 -26 -38 -43 -42 -70 -17 -12 11 -18 30 -18 60 0 57 -50 211
-91 279 -18 30 -37 54 -41 54 -4 0 -12 -9 -18 -20 -13 -25 -41 -26 -69 -2 -21
17 -21 18 -6 71 19 61 15 78 -17 83 -17 2 -22 9 -20 27 1 17 -2 22 -13 17 -8
-3 -15 -1 -15 4 0 12 38 19 74 14 16 -2 55 -4 87 -4z m457 -9 c2 -6 -1 -24 -7
-39 -12 -29 -12 -28 49 -232 18 -58 37 -111 43 -119 7 -8 10 -15 8 -15 -12 -3
13 -46 34 -60 14 -9 25 -25 25 -36 0 -18 -7 -20 -92 -20 -51 0 -104 -1 -118
-3 -32 -3 -38 25 -10 53 24 24 23 31 -22 167 -27 85 -32 92 -52 87 -15 -3 -29
3 -45 19 l-23 25 26 41 c33 51 33 65 0 88 -23 17 -25 22 -14 39 10 17 23 19
103 19 63 -1 92 -5 95 -14z m-3227 -18 c-12 -20 -14 -14 -5 12 4 9 9 14 11 11
3 -2 0 -13 -6 -23z m2586 11 c-3 -3 -12 -4 -19 -1 -8 3 -5 6 6 6 11 1 17 -2
13 -5z m-2260 -46 c-3 -8 -6 -5 -6 6 -1 11 2 17 5 13 3 -3 4 -12 1 -19z m1483
-78 c0 -5 -2 -10 -4 -10 -3 0 -8 5 -11 10 -3 6 -1 10 4 10 6 0 11 -4 11 -10z
m120 -20 c0 -16 -3 -30 -7 -30 -5 0 -8 14 -8 30 0 17 3 30 8 30 4 0 7 -13 7
-30z m230 -12 c0 -30 -25 -15 -28 17 -3 25 -2 27 12 16 9 -8 16 -22 16 -33z
m-1979 -5 l48 -36 -47 -52 -47 -52 -7 46 c-8 61 -10 131 -2 131 4 0 28 -16 55
-37z m1596 0 c-3 -10 -5 -4 -5 12 0 17 2 24 5 18 2 -7 2 -21 0 -30z m260 -10
c-3 -10 -5 -4 -5 12 0 17 2 24 5 18 2 -7 2 -21 0 -30z m103 -13 c0 -5 -4 -10
-10 -10 -5 0 -10 5 -10 10 0 6 5 10 10 10 6 0 10 -4 10 -10z m-873 -67 c-3
-10 -5 -4 -5 12 0 17 2 24 5 18 2 -7 2 -21 0 -30z m530 -10 c-3 -10 -5 -2 -5
17 0 19 2 27 5 18 2 -10 2 -26 0 -35z m913 29 l22 -18 -27 -79 c-30 -87 -45
-113 -45 -75 0 23 12 68 32 120 6 16 6 26 -1 28 -20 7 -25 2 -25 -28 -1 -16
-5 -29 -9 -27 -5 1 -16 -11 -24 -26 -20 -40 -28 -26 -14 27 25 101 43 117 91
78z m-2421 -49 c0 -36 -2 -43 -9 -27 -7 18 -3 74 6 74 2 0 4 -21 3 -47z m3141
28 c0 -12 -20 -25 -27 -18 -7 7 6 27 18 27 5 0 9 -4 9 -9z m-1504 -31 c0 -11
-4 -20 -8 -20 -4 0 -8 -10 -9 -22 -1 -22 -1 -22 -8 2 -8 25 3 60 17 60 4 0 8
-9 8 -20z m394 -30 c0 -15 -7 -33 -16 -40 -13 -12 -14 -10 -3 13 10 21 10 33
0 54 -11 23 -10 25 3 13 9 -7 16 -25 16 -40z m-59 4 c-9 -28 -9 -29 -10 -3 -1
14 2 29 6 32 11 12 13 2 4 -29z m-309 -9 c-2 -14 -6 -25 -8 -25 -2 0 -4 11 -4
25 0 14 4 25 9 25 4 0 6 -11 3 -25z m25 -12 c-3 -10 -5 -4 -5 12 0 17 2 24 5
18 2 -7 2 -21 0 -30z m102 15 c0 -22 -1 -22 -9 -3 -8 19 -9 18 -11 -5 l-2 -25
-5 25 -5 25 -8 -25 -7 -25 -1 28 c-1 22 3 27 24 27 19 0 25 -5 24 -22z m51 -3
c0 -15 -6 -25 -14 -25 -22 0 -30 19 -11 26 13 6 14 8 3 15 -10 7 -9 9 5 9 12
0 17 -8 17 -25z m42 0 c3 -15 1 -25 -6 -25 -6 0 -11 11 -11 25 0 14 3 25 6 25
4 0 9 -11 11 -25z m57 -2 c-2 -24 -2 -25 -6 -5 -5 26 -20 29 -26 5 -4 -14 -5
-12 -6 5 -1 16 5 22 19 22 15 0 20 -6 19 -27z m-547 -18 c2 -21 0 -35 -7 -35
-7 0 -9 14 -7 35 2 19 5 35 7 35 2 0 5 -16 7 -35z m-435 -11 c93 -54 307 -254
290 -270 -8 -9 -57 8 -51 17 8 14 -62 92 -101 114 -19 10 -35 23 -35 30 0 6
-36 38 -81 70 -78 56 -81 58 -117 47 -25 -8 -39 -8 -49 -1 -7 6 -21 8 -30 5
-12 -5 -15 -4 -8 3 29 28 122 20 182 -15z m535 11 c-2 -15 0 -25 7 -25 6 0 11
12 11 28 1 24 2 25 11 9 14 -24 4 -47 -21 -47 -16 0 -20 7 -20 30 0 17 4 30 9
30 4 0 6 -11 3 -25z m-1502 -25 c4 0 11 -10 14 -22 3 -13 26 -50 50 -82 48
-63 65 -111 47 -129 -12 -12 -12 -11 -15 47 -2 28 -62 90 -78 80 -5 -3 -12 5
-17 18 -9 21 -10 21 -11 3 0 -17 -2 -17 -10 -5 -5 8 -10 26 -10 39 l0 24 25
-23 c32 -30 32 -21 1 25 -16 23 -22 43 -18 53 6 14 7 13 10 -5 2 -13 7 -23 12
-23z m1202 10 c-2 -17 0 -30 6 -30 6 0 13 12 15 28 4 25 4 25 6 -5 1 -29 -2
-33 -24 -33 -19 0 -25 5 -25 23 0 18 16 47 25 47 1 0 0 -13 -3 -30z m100 -30
c6 0 8 11 6 25 -3 14 -1 25 3 25 5 0 9 -13 9 -30 0 -23 -4 -30 -20 -30 -24 0
-35 23 -24 48 6 14 8 12 12 -10 2 -16 8 -28 14 -28z m830 -45 c4 -34 -5 -48
-15 -22 -4 9 -8 8 -16 -3 -8 -12 -11 -7 -11 23 0 30 4 37 19 37 14 0 20 -9 23
-35z m193 -6 c0 -16 -3 -29 -7 -29 -5 0 -8 17 -8 37 0 20 3 33 8 29 4 -4 7
-21 7 -37z m-1592 3 c-2 -10 -13 -19 -24 -19 -19 -2 -18 6 4 34 13 17 26 7 20
-15z m667 9 c0 -11 3 -26 6 -35 4 -10 1 -16 -7 -16 -9 0 -14 12 -14 35 0 19 3
35 8 35 4 0 7 -9 7 -19z m632 -11 c3 -16 1 -30 -4 -30 -4 0 -8 6 -8 14 0 8 -3
21 -6 30 -3 9 -2 16 4 16 5 0 12 -13 14 -30z m-1057 4 c12 4 15 1 13 -12 -1
-9 1 -23 5 -29 5 -8 3 -13 -7 -13 -8 0 -19 -8 -25 -17 -9 -17 -10 -17 -16 0
-4 9 -13 17 -21 17 -16 0 -19 16 -4 25 6 3 10 15 10 27 0 17 3 18 15 8 8 -7
22 -10 30 -6z m545 2 c0 -8 3 -21 6 -30 4 -10 1 -16 -8 -16 -10 0 -15 10 -14
30 1 29 16 44 16 16z m252 -11 c4 -17 1 -25 -8 -25 -8 0 -14 11 -14 25 0 14 4
25 9 25 5 0 11 -11 13 -25z m67 -2 l-1 -28 -8 25 -8 25 -2 -25 -3 -25 -5 25
-5 25 -8 -25 -7 -25 -1 28 c-1 22 3 27 24 27 21 0 25 -5 24 -27z m106 2 c0
-16 -7 -20 -39 -21 -21 -1 -42 -7 -47 -15 -6 -10 -9 -2 -9 23 l0 37 48 -2 c40
-2 47 -5 47 -22z m27 0 c-2 -14 -6 -25 -8 -25 -2 0 -4 11 -4 25 0 14 4 25 9
25 4 0 6 -11 3 -25z m218 10 c0 -8 -8 -15 -17 -15 -15 0 -16 -2 -3 -10 13 -8
12 -10 -2 -10 -13 0 -18 8 -18 25 0 18 5 25 20 25 11 0 20 -7 20 -15z m50 -10
c0 -18 -5 -25 -20 -25 -24 0 -26 18 -3 27 15 6 15 7 -3 14 -17 7 -17 8 4 8 17
1 22 -5 22 -24z m38 18 c-10 -2 -18 -11 -18 -18 0 -7 8 -16 18 -19 13 -4 13
-4 -3 -3 -12 1 -21 11 -23 25 -3 18 1 22 20 21 17 -1 18 -3 6 -6z m-632 -50
c-11 -11 -17 4 -9 23 7 18 8 18 11 1 2 -10 1 -21 -2 -24z m-1576 -54 c0 -6 -4
-7 -10 -4 -5 3 -10 11 -10 16 0 6 5 7 10 4 6 -3 10 -11 10 -16z m1082 -35 c9
-19 8 -28 -7 -44 -10 -11 -30 -20 -44 -20 l-25 0 22 16 c25 18 29 46 7 64 -8
7 -12 16 -9 21 8 14 44 -9 56 -37z m870 11 c2 -20 0 -35 -7 -35 -5 0 -10 16
-10 35 0 19 3 35 6 35 4 0 9 -16 11 -35z m85 -2 c-3 -10 -5 -4 -5 12 0 17 2
24 5 18 2 -7 2 -21 0 -30z m49 11 c-4 -15 -2 -32 5 -40 7 -8 9 -17 6 -20 -11
-11 -29 38 -23 62 4 13 9 24 12 24 4 0 3 -12 0 -26z m85 -15 l-9 -34 -1 31
c-1 17 2 34 6 37 12 13 14 -1 4 -34z m48 4 c-1 -21 -3 -30 -6 -21 -2 10 -10
15 -19 11 -8 -3 -14 0 -14 6 0 6 5 11 10 11 6 0 10 7 10 15 0 8 5 15 10 15 6
0 9 -17 9 -37z m43 2 c-2 -19 -8 -35 -12 -35 -4 0 -10 16 -12 35 -3 27 0 35
12 35 12 0 15 -8 12 -35z m50 24 c-25 -9 -27 -39 -4 -47 7 -2 10 2 6 12 -3 9
-1 16 5 16 6 0 11 -9 11 -21 0 -15 -5 -20 -22 -17 -41 6 -36 68 4 67 l23 0
-23 -10z m58 3 c0 -5 -7 -9 -15 -9 -8 0 -15 4 -15 9 0 4 7 8 15 8 8 0 15 -4
15 -8z m50 -39 c0 -12 -3 -24 -7 -26 -5 -3 -8 12 -8 34 -1 22 2 33 7 26 4 -6
8 -22 8 -34z m-527 11 c-3 -9 0 -20 8 -26 12 -8 11 -9 -1 -5 -8 2 -16 16 -18
31 -2 18 0 26 7 22 5 -4 7 -14 4 -22z m-176 0 c5 -13 -26 -54 -42 -54 -3 0 -5
16 -5 35 0 29 4 35 20 35 11 0 23 -7 27 -16z m37 8 c-7 -4 -14 -16 -17 -27 -4
-15 -5 -14 -6 8 -1 20 4 27 17 27 11 0 13 -3 6 -8z m48 -17 c3 -15 1 -25 -6
-25 -6 0 -11 11 -11 25 0 14 3 25 6 25 4 0 9 -11 11 -25z m57 -2 c-2 -24 -2
-25 -6 -5 -2 12 -8 22 -13 22 -5 0 -11 -10 -13 -22 -4 -20 -4 -19 -6 5 -1 21
4 27 19 27 15 0 20 -6 19 -27z m150 0 c-2 -24 -2 -25 -6 -5 -2 12 -8 22 -13
22 -5 0 -11 -10 -13 -22 -4 -20 -4 -19 -6 5 -1 21 4 27 19 27 15 0 20 -6 19
-27z m951 13 c0 -18 -17 -29 -30 -21 -8 5 -7 11 1 21 15 18 29 18 29 0z
m-2030 -51 c0 -8 -7 -15 -15 -15 -16 0 -20 12 -8 23 11 12 23 8 23 -8z m2030
1 c0 -3 -4 -8 -10 -11 -5 -3 -10 -1 -10 4 0 6 5 11 10 11 6 0 10 -2 10 -4z
m-2931 -76 c-1 -41 -2 -42 -9 -15 -4 17 -8 44 -9 60 0 23 2 26 9 15 5 -8 9
-35 9 -60z m854 2 c30 -4 27 -22 -4 -22 -28 0 -59 36 -59 68 0 27 0 27 18 -8
12 -25 25 -36 45 -38z m-86 36 c-3 -8 -6 -5 -6 6 -1 11 2 17 5 13 3 -3 4 -12
1 -19z m1398 -67 c36 -50 37 -53 14 -46 -61 19 -66 24 -78 69 -21 86 -11 82
64 -23z m-976 24 c-16 -7 -24 -6 -27 3 -2 6 -16 12 -30 11 -26 0 -26 -1 -4 -9
12 -5 22 -12 22 -15 0 -4 -4 -4 -9 -1 -9 6 -125 -7 -156 -18 -11 -4 -2 3 20
15 22 12 69 30 105 40 60 16 66 16 83 1 18 -16 18 -17 -4 -27z m273 15 c20 -6
39 -17 42 -25 7 -19 1 -19 -30 1 -45 30 -157 8 -321 -63 -7 -3 -13 -1 -13 5 0
14 112 62 183 77 78 17 93 17 139 5z m345 -35 c-2 -51 -4 -54 -16 -22 -7 18 4
67 14 67 2 0 2 -20 2 -45z m213 4 c0 -33 -3 -40 -17 -37 -25 5 -28 36 -6 58
10 10 19 19 21 19 1 1 2 -17 2 -40z m41 19 c2 -34 -2 -62 -9 -70 -4 -4 -7 15
-7 42 0 49 14 72 16 28z m-424 -3 c50 -35 54 -149 8 -199 -30 -32 -59 -33 -90
-2 -31 31 -41 85 -25 142 19 67 62 91 107 59z m217 -10 c-19 -15 -19 -15 0
-30 18 -13 18 -15 3 -15 -20 0 -32 23 -23 45 3 8 13 15 23 15 15 0 15 -2 -3
-15z m64 -17 c2 -20 -1 -26 -14 -24 -24 4 -30 24 -9 32 13 6 14 9 3 16 -10 8
-10 9 2 5 8 -2 16 -15 18 -29z m52 21 c0 -5 -4 -7 -10 -4 -5 3 -10 -3 -10 -14
0 -12 -4 -21 -10 -21 -11 0 -14 33 -3 43 10 11 33 8 33 -4z m338 -23 c3 -12
-1 -17 -10 -14 -7 3 -15 13 -16 22 -3 12 1 17 10 14 7 -3 15 -13 16 -22z m476
-19 c57 -74 98 -208 94 -306 -1 -39 -2 -40 -5 -11 -7 76 -26 156 -45 193 -18
36 -20 38 -33 21 -7 -11 -11 -22 -8 -26 2 -5 -3 -11 -11 -14 -9 -3 -16 -16
-16 -29 0 -21 -21 -66 -83 -179 -23 -42 -54 -76 -110 -122 -18 -16 -75 -10
-146 15 -58 20 -91 20 -91 -1 0 -6 -7 -7 -16 -4 -8 3 -12 2 -9 -4 3 -6 1 -10
-4 -10 -14 0 -14 -70 -1 -106 18 -45 2 -40 -20 7 -22 50 -27 147 -9 198 11 32
11 32 33 13 53 -49 108 -54 176 -18 66 34 91 41 84 22 -5 -12 -2 -15 10 -10 9
3 19 18 22 33 19 81 21 85 45 91 21 5 24 12 27 52 2 36 8 50 28 62 22 15 24
23 24 85 0 37 3 71 7 74 14 14 33 6 57 -26z m-1698 -39 c23 -20 44 -79 44
-122 0 -39 -27 -85 -53 -91 -101 -26 -166 157 -80 225 29 23 55 19 89 -12z
m-287 -21 c0 -27 -2 -29 -9 -12 -12 28 -12 57 0 50 6 -3 10 -21 9 -38z m-790
5 c11 -21 41 -146 33 -138 -10 11 -52 121 -52 139 0 22 7 22 19 -1z m2558 -4
c-3 -8 -6 -5 -6 6 -1 11 2 17 5 13 3 -3 4 -12 1 -19z m-542 2 c4 -6 3 -10 -2
-9 -24 4 -25 -3 -4 -20 13 -10 21 -23 17 -30 -9 -14 -46 -14 -46 0 0 6 6 9 14
6 24 -10 26 5 3 24 -19 16 -20 20 -7 29 19 12 18 12 25 0z m330 0 c3 -5 -1
-10 -9 -10 -9 0 -16 5 -16 10 0 6 4 10 9 10 6 0 13 -4 16 -10z m-281 -40 c1
-16 -2 -30 -6 -30 -5 0 -8 3 -9 8 0 4 -2 16 -4 26 -4 22 4 41 13 32 3 -3 6
-19 6 -36z m100 2 c1 -18 -2 -32 -6 -32 -5 0 -8 6 -8 13 0 6 -3 23 -7 36 -4
17 -2 22 7 19 7 -2 14 -18 14 -36z m-311 -12 c3 8 8 22 10 30 3 8 6 0 6 -17 1
-27 -3 -33 -19 -33 -16 0 -20 6 -19 33 l1 32 8 -30 c4 -20 9 -25 13 -15z m54
33 c-4 -3 -2 -12 4 -19 11 -14 4 -34 -11 -34 -5 0 -7 6 -4 14 3 8 0 17 -5 21
-13 7 -5 25 11 25 6 0 8 -3 5 -7z m61 -14 c3 -12 2 -12 -7 1 -5 8 -13 12 -16
9 -9 -9 6 -40 16 -33 5 3 9 0 9 -5 0 -17 -30 -13 -36 4 -8 20 3 48 18 43 6 -2
13 -11 16 -19z m157 1 c3 -11 3 -24 0 -30 -8 -13 -32 -13 -40 1 -11 17 5 25
16 9 8 -11 10 -8 6 13 -5 31 9 37 18 7z m100 -9 c-3 -3 -10 1 -15 9 -8 12 -10
11 -10 -7 0 -12 6 -24 13 -26 7 -4 8 -6 1 -6 -6 -1 -17 6 -24 14 -18 21 6 51
27 34 7 -7 11 -14 8 -18z m-735 -3 c0 -7 3 -30 6 -50 l7 -38 -63 0 -63 0 49
48 c53 52 64 59 64 40z m1070 -14 c0 -14 -4 -23 -9 -20 -5 3 -7 15 -4 26 7 28
13 25 13 -6z m-1759 -22 c-5 -2 -7 -12 -4 -22 3 -11 0 -20 -6 -20 -12 0 -15
29 -5 55 5 13 8 14 15 3 5 -7 4 -14 0 -16z m1755 -69 c-11 -11 -19 6 -11 24 8
17 8 17 12 0 3 -10 2 -21 -1 -24z m-556 13 c0 -3 -4 -8 -10 -11 -5 -3 -10 -1
-10 4 0 6 5 11 10 11 6 0 10 -2 10 -4z m780 -12 c0 -8 -4 -12 -10 -9 -5 3 -10
10 -10 16 0 5 5 9 10 9 6 0 10 -7 10 -16z m-2590 -8 c0 -2 -12 -13 -27 -27
-14 -13 -23 -18 -19 -11 13 22 -47 14 -105 -15 -62 -31 -140 -107 -170 -165
-11 -22 -23 -38 -25 -35 -7 7 31 72 69 119 42 53 156 127 209 137 36 6 68 5
68 -3z m1400 7 c0 -3 -12 -26 -26 -50 -28 -48 -28 -49 0 -55 15 -2 21 5 27 30
4 18 9 35 11 37 9 10 115 -28 183 -64 39 -21 108 -65 153 -99 79 -59 130 -82
180 -82 19 0 21 -3 13 -18 -12 -22 -64 -27 -95 -9 -12 6 -27 12 -35 13 -8 2
-25 5 -38 9 -35 8 -28 -11 10 -26 l32 -13 -29 -4 c-19 -2 -38 3 -55 17 -42 33
-81 53 -99 48 -12 -2 -4 -9 23 -22 40 -19 40 -19 12 -23 -19 -2 -53 11 -110
41 -98 54 -189 76 -247 60 -22 -5 -40 -7 -40 -3 0 4 -11 19 -25 34 -39 43 -76
36 -138 -26 -46 -46 -56 -52 -97 -53 -57 -1 -139 -41 -205 -101 -54 -48 -100
-77 -116 -72 -9 3 62 61 102 83 10 5 23 20 30 32 8 14 22 23 38 24 14 0 20 3
14 6 -7 2 -13 9 -13 15 0 7 5 7 13 -1 11 -8 20 -6 37 9 13 11 28 20 35 20 8 0
10 9 7 25 -3 16 0 26 9 27 27 3 54 5 88 7 29 1 32 3 21 16 -11 13 -8 15 15 15
16 0 37 8 48 17 13 12 33 17 65 16 67 -3 133 7 127 18 -4 5 -2 9 3 9 10 0 42
64 42 85 0 8 7 15 15 15 8 0 15 -3 15 -7z m-100 -28 c0 -10 -11 -15 -32 -16
-22 0 -27 -3 -17 -7 11 -5 14 -13 9 -27 -7 -19 -7 -19 -20 1 -9 14 -20 19 -36
16 -13 -2 -21 -8 -18 -13 5 -9 -17 -13 -44 -10 -8 1 -20 -3 -27 -9 -29 -24
-69 29 -42 56 12 13 73 22 150 23 62 1 77 -2 77 -14z m618 -43 c2 -22 -1 -32
-11 -32 -9 0 -13 11 -13 35 1 43 20 40 24 -3z m-974 -80 c4 -7 3 -12 -3 -12
-13 0 -40 90 -33 110 3 8 11 -8 17 -36 6 -27 15 -55 19 -62z m1654 76 c-2 -17
-9 -33 -16 -36 -11 -3 -12 0 -3 16 6 11 8 28 5 36 -3 9 -1 16 6 16 7 0 10 -12
8 -32z m-1378 -8 c0 -5 -2 -10 -4 -10 -3 0 -8 5 -11 10 -3 6 -1 10 4 10 6 0
11 -4 11 -10z m-1360 -9 c0 -13 -29 -35 -37 -28 -7 8 15 37 28 37 5 0 9 -4 9
-9z m60 -15 c0 -2 -7 -9 -15 -16 -12 -10 -15 -10 -15 4 0 9 7 16 15 16 8 0 15
-2 15 -4z m-125 -53 c-12 -17 -20 -23 -23 -15 -4 14 28 56 36 47 3 -2 -3 -17
-13 -32z m299 -75 c20 -39 26 -67 26 -114 0 -34 -3 -69 -6 -78 -11 -30 -26
-16 -23 22 1 20 -3 48 -10 60 -7 13 -10 34 -7 46 7 27 -3 68 -15 61 -6 -4 -49
75 -49 92 0 2 13 -5 29 -16 16 -12 41 -44 55 -73z m-217 -6 c-15 -19 -20 -7
-11 30 7 32 8 32 14 8 4 -14 2 -31 -3 -38z m1015 16 c-5 -5 -17 -6 -26 -2 -13
5 -14 9 -5 14 16 11 43 0 31 -12z m-283 9 c-2 -2 -25 -23 -51 -47 -27 -23 -48
-40 -48 -37 0 9 84 87 94 87 5 0 7 -1 5 -3z m-861 -37 c-7 -10 -14 -18 -15
-16 -6 6 9 36 18 36 5 0 4 -9 -3 -20z m1690 -9 c2 -6 12 -11 22 -11 11 0 45
-21 77 -47 79 -65 93 -71 136 -67 21 3 37 0 37 -6 0 -5 18 -10 40 -10 42 0 45
-4 40 -60 -3 -39 -9 -42 -37 -20 -42 33 -80 26 -126 -22 -21 -24 -52 -65 -67
-91 -17 -30 -31 -44 -35 -37 -12 20 -36 -9 -29 -36 4 -14 2 -24 -4 -24 -18 0
-23 19 -12 40 12 23 2 26 -25 6 -16 -11 -17 -17 -7 -29 8 -9 9 -18 4 -21 -6
-3 -26 14 -47 39 -57 70 -117 93 -160 61 -13 -10 -36 -12 -76 -9 -54 5 -58 4
-97 -31 -38 -35 -42 -36 -64 -23 -13 8 -54 31 -91 51 -63 35 -67 39 -53 55 14
16 13 20 -15 52 -17 20 -32 29 -35 23 -3 -7 -14 -10 -24 -7 -11 3 -20 0 -20
-6 0 -6 7 -11 15 -11 8 0 15 -7 15 -15 0 -13 -3 -13 -26 1 l-25 17 68 70 c37
39 74 77 82 86 24 27 64 43 110 44 43 1 45 -1 54 -32 20 -78 83 -137 138 -129
36 5 67 60 74 132 7 64 15 75 65 89 23 6 94 -10 98 -22z m1182 -83 c-12 -23
-33 -57 -46 -75 -27 -36 -139 -113 -163 -112 -13 0 -12 2 3 8 35 14 153 126
187 178 40 62 49 62 19 1z m-320 38 c0 -11 -19 -15 -25 -6 -3 5 1 10 9 10 9 0
16 -2 16 -4z m-2441 -80 c1 -5 -6 -3 -14 4 -8 7 -15 27 -14 44 l1 31 13 -35
c7 -19 14 -39 14 -44z m586 53 c-4 -5 -13 -9 -21 -9 -9 0 -12 -5 -8 -12 4 -7
4 -10 0 -6 -8 6 -17 1 -51 -30 -9 -8 -19 -12 -25 -10 -5 2 14 22 41 45 28 24
55 40 60 37 5 -3 7 -10 4 -15z m743 -39 c35 -22 37 -36 8 -54 -13 -9 -20 -7
-30 7 -7 9 -18 17 -24 17 -10 0 -32 30 -32 44 0 13 47 4 78 -14z m-1241 -12
c-3 -8 -6 -5 -6 6 -1 11 2 17 5 13 3 -3 4 -12 1 -19z m52 -232 c23 -114 41
-213 41 -219 -1 -36 -40 113 -50 193 -7 52 -17 100 -22 107 -10 13 -25 142
-15 133 3 -3 24 -99 46 -214z m781 57 c170 -114 355 -204 530 -259 127 -40
115 -44 -18 -7 -104 28 -150 31 -164 11 -6 -10 -10 -10 -18 2 -7 11 -5 18 6
27 14 10 13 12 -4 18 -11 3 -32 3 -46 -1 -22 -5 -26 -3 -26 14 0 11 -7 22 -15
26 -12 4 -15 -1 -13 -25 2 -20 -3 -34 -15 -40 -27 -16 -20 -32 11 -25 24 5 25
4 6 -5 -17 -9 -35 -3 -100 30 -43 23 -88 47 -99 54 -74 46 -116 76 -159 111
l-48 40 31 28 c17 15 37 28 45 28 17 0 66 -39 50 -40 -6 0 -17 7 -24 15 -17
21 -37 19 -50 -5 -6 -11 -8 -21 -5 -21 3 -1 9 -2 14 -3 19 -2 25 -17 11 -26
-21 -13 -6 -22 23 -14 15 3 29 15 32 25 8 25 14 24 66 -6 73 -41 67 -28 -12
26 -88 61 -191 142 -210 166 -8 9 15 -7 51 -35 36 -29 103 -78 150 -109z
m1300 111 c0 -8 4 -14 9 -14 5 0 14 -13 20 -30 6 -18 6 -30 0 -30 -5 0 -9 -7
-9 -15 0 -9 -9 -26 -21 -38 -20 -22 -21 -22 -35 -3 -18 25 -18 77 1 122 14 34
35 39 35 8z m-2005 -24 c17 0 36 5 43 12 20 20 27 -1 26 -72 -1 -50 -9 -83
-27 -124 -14 -31 -28 -56 -31 -56 -6 0 3 30 14 45 12 17 19 81 10 96 -7 11
-10 10 -16 -4 -9 -24 -26 -10 -24 21 3 45 1 50 -30 68 -16 10 -32 24 -35 31
-3 11 1 10 17 -2 13 -8 36 -15 53 -15z m260 0 c-10 -11 -26 -22 -36 -25 -36
-12 -18 -25 34 -25 28 0 59 -5 67 -10 10 -7 -20 -9 -97 -8 -62 2 -113 6 -113
10 0 4 17 12 38 18 20 5 55 21 77 35 49 30 53 31 30 5z m1403 -26 c30 -21 28
-34 -7 -34 -20 0 -37 -9 -54 -30 -32 -38 -37 -38 -37 3 0 66 48 96 98 61z
m-883 -43 c7 -12 -12 -24 -25 -16 -11 7 -4 25 10 25 5 0 11 -4 15 -9z m1528 2
c-7 -2 -19 -2 -25 0 -7 3 -2 5 12 5 14 0 19 -2 13 -5z m-401 -55 l-4 -53 -86
5 c-100 6 -172 32 -172 63 0 15 5 18 23 12 57 -17 113 -16 162 3 78 31 80 30
77 -30z m-2332 -4 c0 -22 62 -130 93 -162 17 -19 52 -45 77 -58 25 -14 34 -22
20 -18 -36 9 -101 48 -127 76 -29 31 -80 135 -88 178 -7 33 -6 34 9 15 8 -11
16 -25 16 -31z m2379 -34 c0 -11 -3 -10 -14 4 -8 11 -15 29 -15 40 1 19 2 19
15 -4 8 -14 14 -32 14 -40z m276 25 c-16 -14 -43 -29 -59 -35 -36 -12 -31 -8
25 30 54 35 75 38 34 5z m-2103 -2 c9 -10 19 -28 22 -40 4 -11 13 -27 21 -33
21 -18 19 -28 -7 -32 -19 -2 -27 6 -45 42 -23 46 -29 80 -15 80 5 0 16 -8 24
-17z m1138 -16 c19 -12 42 -36 52 -53 18 -30 17 -31 -2 -29 -11 1 -26 7 -32
13 -15 15 -55 15 -64 0 -4 -7 -3 -8 4 -4 7 4 12 2 12 -3 0 -6 -6 -11 -12 -12
-7 0 -25 -2 -40 -4 -24 -3 -26 0 -30 37 -3 37 -1 43 27 59 38 24 45 24 85 -4z
m-132 -47 c0 -17 -3 -30 -8 -30 -5 0 -6 7 -3 17 4 11 3 14 -5 9 -7 -4 -12 -3
-12 3 0 13 -53 -2 -57 -16 -3 -7 4 -9 16 -6 12 3 21 1 21 -6 0 -14 -25 -14
-67 1 -40 15 -41 21 -5 46 35 25 60 30 93 20 20 -7 26 -16 27 -38z m-658 5
c19 -14 29 -25 23 -25 -6 0 -13 -10 -16 -22 -6 -22 -6 -22 -27 5 -11 14 -30
29 -41 32 -20 7 -20 7 -2 21 24 18 24 18 63 -11z m-360 -90 c0 -11 -3 -29 -6
-41 -5 -20 -7 -20 -36 8 -28 26 -30 31 -19 55 6 14 9 28 7 31 -3 2 0 14 6 26
11 20 12 19 29 -19 10 -22 19 -49 19 -60z m260 27 c0 -5 -9 -17 -20 -27 -11
-10 -20 -15 -20 -10 0 4 -7 2 -15 -5 -9 -7 -32 -16 -53 -20 -20 -4 -49 -11
-64 -15 -23 -6 -28 -4 -28 11 0 9 -7 25 -16 35 -14 16 -11 18 63 24 43 3 87 7
98 9 41 6 55 6 55 -2z m1477 -48 c-3 -3 -12 -4 -19 -1 -8 3 -5 6 6 6 11 1 17
-2 13 -5z m146 -5 c20 -5 37 -16 37 -24 0 -22 -16 -26 -46 -10 -16 8 -48 17
-72 21 -30 4 -40 9 -31 15 19 12 66 11 112 -2z m-231 -23 c120 -45 223 -105
207 -120 -5 -5 -46 -9 -75 -7 -11 1 -37 17 -57 36 -20 19 -42 35 -49 35 -21 0
-76 37 -88 59 -13 26 -14 26 62 -3z m-1052 -26 c0 -5 -2 -10 -4 -10 -3 0 -8 5
-11 10 -3 6 -1 10 4 10 6 0 11 -4 11 -10z m1433 -104 c62 -93 91 -146 83 -153
-7 -8 -27 7 -21 16 2 5 -20 35 -50 69 -30 33 -55 67 -55 76 0 8 -6 19 -14 23
-7 4 -17 24 -21 43 -7 31 -6 33 8 21 9 -7 41 -50 70 -95z m-2318 28 c28 -18
32 -23 15 -18 -25 7 -70 33 -70 40 0 9 17 2 55 -22z m455 11 c-14 -8 -32 -14
-40 -14 -8 0 -1 6 15 14 40 18 57 18 25 0z m-242 -196 c29 -86 52 -162 51
-170 -1 -40 -97 240 -113 331 -9 50 2 21 62 -161z m467 172 c3 -5 1 -12 -5
-16 -5 -3 -10 1 -10 9 0 18 6 21 15 7z m-85 -41 c0 -6 -10 -14 -22 -19 -19 -7
-19 -8 -4 -14 10 -4 23 -4 29 -1 7 3 -6 -10 -28 -30 -22 -19 -46 -33 -52 -31
-7 2 -12 -1 -10 -7 1 -6 -5 -13 -13 -16 -8 -2 -12 -1 -8 3 9 9 -20 40 -30 31
-3 -4 -1 -16 6 -26 10 -16 10 -24 0 -40 -12 -19 -57 -28 -71 -14 -10 10 37 72
74 100 31 23 34 23 40 7 6 -17 7 -16 14 2 8 20 54 65 68 65 4 0 7 -5 7 -10z
m30 -5 c-7 -9 -15 -13 -19 -10 -3 3 1 10 9 15 21 14 24 12 10 -5z m1541 -26
c10 -34 9 -216 0 -264 -5 -22 -9 -31 -10 -20 0 11 -8 30 -16 42 -13 19 -13 23
1 37 14 15 14 17 0 22 -20 8 -21 44 -1 44 20 0 19 10 -2 26 -15 11 -16 15 -4
23 11 7 13 23 8 66 -4 40 -2 55 6 52 6 -2 14 -14 18 -28z m-1890 -104 c-7 -59
-8 -60 -20 -30 -10 25 -10 35 4 64 9 18 17 32 19 30 2 -2 1 -31 -3 -64z m1199
55 c-8 -5 -22 -9 -30 -9 -10 0 -8 3 5 9 27 12 43 12 25 0z m-60 -19 c-26 -15
-205 -41 -271 -40 l-64 2 60 7 c33 5 87 11 120 15 33 4 80 10 105 15 62 10 67
11 50 1z m-443 -7 c-3 -3 -12 -4 -19 -1 -8 3 -5 6 6 6 11 1 17 -2 13 -5z m-44
-11 c-7 -2 -19 -2 -25 0 -7 3 -2 5 12 5 14 0 19 -2 13 -5z m122 -13 c-3 -5
-13 -10 -21 -10 -8 0 -14 5 -14 10 0 6 9 10 21 10 11 0 17 -4 14 -10z m795
-100 l-11 -25 6 25 c2 14 6 41 7 60 l1 35 4 -35 c2 -20 -1 -47 -7 -60z m573
-40 l-8 -45 -5 65 c-6 73 0 99 12 55 4 -17 5 -50 1 -75z m-2146 -72 c-3 -8 -6
-5 -6 6 -1 11 2 17 5 13 3 -3 4 -12 1 -19z m217 -4 c3 -8 2 -12 -4 -9 -6 3
-10 10 -10 16 0 14 7 11 14 -7z m14 -59 c-3 -3 -9 2 -12 12 -6 14 -5 15 5 6 7
-7 10 -15 7 -18z m1607 -54 c-15 -27 -43 -64 -63 -83 l-35 -33 40 55 c21 30
47 73 58 95 10 22 20 34 22 28 3 -7 -8 -35 -22 -62z m-1585 -55 c0 -39 -6 -31
-14 19 -5 29 -4 36 3 25 6 -8 11 -28 11 -44z m71 -122 c16 -24 28 -44 26 -44
-2 0 -23 22 -46 50 -23 27 -35 47 -26 44 9 -4 29 -26 46 -50z"/>
<path d="M2430 3380 c0 -5 7 -10 15 -10 8 0 15 5 15 10 0 6 -7 10 -15 10 -8 0
-15 -4 -15 -10z"/>
<path d="M2350 3440 c0 -5 5 -10 10 -10 6 0 10 5 10 10 0 6 -4 10 -10 10 -5 0
-10 -4 -10 -10z"/>
<path d="M3477 3553 c14 -21 14 -29 0 -78 -8 -29 -13 -56 -9 -59 14 -15 31 -3
37 24 7 33 9 34 34 21 24 -13 102 -127 93 -136 -4 -4 0 -6 8 -3 11 4 18 -9 26
-51 11 -53 11 -54 13 -17 2 72 12 30 15 -67 3 -99 11 -130 27 -106 6 10 9 10
9 2 0 -6 -4 -15 -10 -18 -5 -3 -10 -12 -10 -18 1 -7 14 3 30 22 15 18 26 40
23 47 -3 8 -1 14 5 14 6 0 12 -6 15 -12 3 -9 7 -7 12 5 4 10 1 27 -7 40 -16
24 -23 181 -8 172 4 -3 11 3 14 12 11 29 -17 35 -37 8 -21 -28 -42 -32 -51 -9
-3 8 -11 12 -17 8 -7 -4 -9 0 -5 14 5 14 1 27 -13 41 -10 10 -17 22 -14 24 2
3 -1 15 -7 27 -10 18 -14 20 -22 9 -7 -10 -8 -9 -4 6 3 11 -1 31 -9 45 -9 16
-15 20 -16 10 -1 -8 -4 -1 -8 15 -6 29 -8 30 -68 31 l-61 1 15 -24z m43 -54
c0 -5 -4 -9 -10 -9 -5 0 -10 7 -10 16 0 8 5 12 10 9 6 -3 10 -10 10 -16z m97
-101 c-3 -8 -6 -5 -6 6 -1 11 2 17 5 13 3 -3 4 -12 1 -19z m163 -244 c0 -8 -5
-12 -10 -9 -6 4 -8 11 -5 16 9 14 15 11 15 -7z"/>
<path d="M3844 3565 c30 -28 29 -45 -6 -103 -23 -37 -17 -52 12 -34 26 16 60
-4 60 -35 0 -27 20 -73 32 -73 4 0 8 -10 8 -22 0 -12 5 -48 12 -81 11 -50 10
-63 -3 -85 l-15 -27 87 0 87 0 -31 35 c-17 19 -35 34 -39 32 -4 -1 -8 14 -8
33 0 19 -6 54 -14 77 -33 97 -66 229 -66 261 0 41 -11 47 -87 47 l-56 0 27
-25z m103 -147 c-3 -8 -6 -5 -6 6 -1 11 2 17 5 13 3 -3 4 -12 1 -19z"/>
<path d="M924 3411 c4 -6 3 -11 -2 -11 -5 0 -7 -11 -4 -25 2 -14 8 -23 12 -20
5 3 6 14 3 25 -4 16 -2 19 11 14 23 -9 20 3 -5 17 -15 8 -19 8 -15 0z"/>
<path d="M3155 3180 c3 -5 8 -10 11 -10 2 0 4 5 4 10 0 6 -5 10 -11 10 -5 0
-7 -4 -4 -10z"/>
<path d="M2910 3155 c0 -9 5 -15 11 -13 6 2 11 8 11 13 0 5 -5 11 -11 13 -6 2
-11 -4 -11 -13z"/>
<path d="M2966 3161 c-4 -5 -2 -12 3 -15 5 -4 12 -2 15 3 4 5 2 12 -3 15 -5 4
-12 2 -15 -3z"/>
<path d="M2811 3034 c0 -11 3 -14 6 -6 3 7 2 16 -1 19 -3 4 -6 -2 -5 -13z"/>
<path d="M3140 2896 c0 -8 5 -18 10 -21 6 -3 10 3 10 14 0 12 -4 21 -10 21 -5
0 -10 -6 -10 -14z"/>
<path d="M2746 2874 c-18 -48 2 -114 35 -114 36 0 47 78 16 118 -13 17 -44 15
-51 -4z m49 -24 c-5 -8 -11 -8 -17 -2 -6 6 -7 16 -3 22 5 8 11 8 17 2 6 -6 7
-16 3 -22z"/>
<path d="M3040 2879 c0 -5 5 -7 10 -4 6 3 10 8 10 11 0 2 -4 4 -10 4 -5 0 -10
-5 -10 -11z"/>
<path d="M2192 2808 c-25 -25 -7 -110 26 -123 24 -9 42 15 42 55 0 45 -9 56
-26 32 -12 -16 -13 -16 -20 2 -5 12 -3 21 4 24 7 2 10 8 6 13 -7 12 -18 11
-32 -3z"/>
<path d="M2810 2554 c0 -2 9 -8 20 -14 11 -6 20 -7 20 -2 0 6 -9 12 -20 15
-11 3 -20 3 -20 1z"/>
<path d="M2903 2535 c-9 -10 -10 -16 -2 -21 15 -9 36 13 24 25 -6 6 -15 4 -22
-4z"/>
<path d="M2987 2499 c7 -7 15 -10 18 -7 3 3 -2 9 -12 12 -14 6 -15 5 -6 -5z"/>
<path d="M2985 2470 c-18 -8 -17 -9 8 -9 15 -1 27 4 27 9 0 12 -8 12 -35 0z"/>
<path d="M2498 2603 c7 -3 16 -2 19 1 4 3 -2 6 -13 5 -11 0 -14 -3 -6 -6z"/>
<path d="M2580 2183 c-14 -8 -41 -12 -63 -9 -32 4 -36 2 -26 -10 18 -21 83
-18 104 6 23 25 17 31 -15 13z"/>
<path d="M2308 2053 c7 -3 16 -2 19 1 4 3 -2 6 -13 5 -11 0 -14 -3 -6 -6z"/>
<path d="M2120 2030 c0 -11 -4 -20 -10 -20 -5 0 -10 -7 -10 -15 0 -8 7 -15 16
-15 9 0 23 -8 30 -17 12 -17 13 -17 20 2 4 11 15 26 23 32 14 11 12 12 -9 10
-19 -1 -26 3 -28 21 -4 27 -32 30 -32 2z"/>
<path d="M2234 1965 c5 -19 2 -25 -10 -25 -9 0 -14 -7 -12 -17 2 -10 9 -18 15
-18 7 0 18 -6 25 -12 17 -18 38 -16 38 2 0 8 -4 15 -10 15 -18 0 -10 21 11 29
21 7 21 8 -9 29 -41 29 -56 28 -48 -3z"/>
<path d="M3430 2149 c0 -5 5 -7 10 -4 6 3 10 8 10 11 0 2 -4 4 -10 4 -5 0 -10
-5 -10 -11z"/>
<path d="M1440 2150 c0 -5 4 -10 9 -10 5 0 12 -8 14 -17 3 -11 5 -7 6 10 1 18
-4 27 -14 27 -8 0 -15 -4 -15 -10z"/>
<path d="M3205 1820 c3 -5 11 -10 16 -10 6 0 7 5 4 10 -3 6 -11 10 -16 10 -6
0 -7 -4 -4 -10z"/>
<path d="M1687 1583 c-10 -9 -9 -33 1 -33 4 0 8 9 8 20 0 23 0 22 -9 13z"/>
<path d="M3166 3841 c-27 -28 -36 -81 -13 -81 13 1 41 23 70 57 17 20 17 21
-6 36 -23 15 -26 14 -51 -12z"/>
<path d="M1611 3764 c-12 -15 -21 -30 -21 -34 0 -19 44 -60 64 -60 48 0 75 70
40 104 -23 24 -60 19 -83 -10z"/>
<path d="M4056 3781 c-4 -5 24 -26 61 -46 38 -20 89 -53 116 -73 l47 -36 0
-76 c0 -238 -78 -472 -219 -660 -40 -53 -46 -70 -26 -73 19 -2 116 139 164
238 65 134 98 271 107 442 5 108 3 136 -9 153 -17 24 -98 80 -169 116 -52 26
-64 29 -72 15z"/>
<path d="M638 3743 c-9 -10 -21 -28 -28 -41 -10 -20 -9 -26 7 -38 28 -21 36
-17 56 25 21 46 21 57 1 65 -21 8 -19 9 -36 -11z"/>
<path d="M1342 3738 c-16 -16 -15 -38 2 -38 7 0 17 10 20 23 l6 22 18 -21 c9
-12 22 -30 29 -40 11 -18 12 -18 12 -1 1 21 -42 67 -62 67 -7 0 -18 -5 -25
-12z"/>
<path d="M2860 3730 c0 -5 5 -10 11 -10 5 0 7 5 4 10 -3 6 -8 10 -11 10 -2 0
-4 -4 -4 -10z"/>
<path d="M2630 3671 c0 -6 15 -11 34 -11 58 0 228 -41 309 -75 9 -4 17 -3 17
3 0 5 -19 16 -42 25 -115 43 -318 80 -318 58z"/>
<path d="M587 3639 c-30 -18 -130 -238 -177 -394 -51 -166 -100 -427 -100
-534 l0 -45 36 43 c47 54 105 84 174 87 l55 3 12 88 c7 48 29 152 49 231 36
143 38 172 10 172 -18 0 -40 -36 -31 -50 11 -18 -7 -35 -19 -18 -15 20 -73 30
-97 18 -11 -6 -19 -7 -19 -1 0 5 7 11 15 15 8 3 12 12 9 21 -10 25 15 45 57
45 27 0 39 4 39 14 0 15 -27 30 -47 27 -7 -1 -13 7 -13 18 0 17 5 20 28 15 15
-3 35 1 45 8 18 13 17 15 -7 28 -45 24 -42 80 4 80 15 0 17 5 10 37 -5 22 -5
44 1 56 11 19 6 47 -8 47 -4 0 -16 -5 -26 -11z m23 -29 c0 -5 -7 -10 -15 -10
-8 0 -15 5 -15 10 0 6 7 10 15 10 8 0 15 -4 15 -10z m20 -415 c-7 -8 -16 -12
-21 -9 -13 8 -1 24 18 24 13 0 13 -3 3 -15z m-67 -6 c11 0 17 -8 17 -25 0 -13
-4 -24 -10 -24 -5 0 -10 4 -10 9 0 14 -64 34 -68 21 -5 -15 -22 -2 -22 17 0
13 7 14 38 8 20 -4 45 -7 55 -6z m-19 -85 c46 -45 -25 -88 -82 -48 -25 17 -28
34 -10 52 17 17 74 15 92 -4z m-10 -129 c-9 -27 -14 -31 -22 -18 -8 13 -53 20
-68 10 -7 -4 -14 1 -17 13 -5 18 0 19 54 17 54 -2 58 -4 53 -22z m-14 -88 c0
-32 -9 -39 -27 -22 -18 18 -63 20 -63 3 0 -9 -4 -8 -10 2 -17 27 -11 32 35 28
25 -2 45 0 45 4 0 5 5 8 10 8 6 0 10 -10 10 -23z"/>
<path d="M460 3090 c0 -13 34 -30 59 -30 25 0 28 25 5 34 -24 9 -64 7 -64 -4z"/>
<path d="M1375 3626 c-29 -12 -29 -13 -9 -24 12 -6 24 -9 27 -6 7 7 78 -62 94
-90 9 -16 13 -16 32 -5 11 8 19 20 16 27 -14 37 -96 113 -121 112 -5 -1 -22
-7 -39 -14z"/>
<path d="M1550 3582 c0 -4 9 -25 20 -47 11 -22 20 -47 20 -55 0 -9 3 -20 6
-23 7 -6 135 107 142 125 2 4 -39 8 -92 8 -53 0 -96 -4 -96 -8z"/>
<path d="M1813 3583 c-23 -3 -55 -26 -118 -86 -84 -79 -87 -84 -101 -149 -13
-54 -24 -77 -59 -116 -24 -26 -59 -56 -78 -67 -29 -15 -41 -33 -70 -105 -33
-81 -87 -269 -87 -304 0 -10 9 -16 23 -16 67 -1 94 -38 83 -113 -4 -29 -3 -38
4 -27 5 8 10 31 10 51 0 63 38 224 75 321 86 223 244 413 462 555 46 30 83 56
83 59 0 5 -181 3 -227 -3z m-293 -453 c-6 -12 -14 -19 -17 -17 -2 3 1 15 7 27
6 12 14 19 17 17 2 -3 -1 -15 -7 -27z m-42 -81 c-16 -30 -58 -28 -58 2 0 10 5
19 10 19 6 0 10 -4 10 -10 0 -16 27 -11 34 6 4 9 9 15 11 12 3 -3 0 -16 -7
-29z m-42 -124 c-8 -43 -23 -53 -41 -29 -22 29 -18 52 13 68 31 17 37 9 28
-39z m-36 -119 c0 -37 -25 -56 -44 -35 -8 9 -7 10 6 6 11 -4 18 1 22 16 3 12
1 24 -4 25 -16 6 -12 22 5 22 10 0 15 -10 15 -34z"/>
<path d="M1400 2930 c0 -11 5 -20 10 -20 6 0 10 9 10 20 0 11 -4 20 -10 20 -5
0 -10 -9 -10 -20z"/>
<path d="M2042 3550 c-107 -58 -156 -95 -246 -179 -198 -189 -319 -429 -345
-684 -5 -52 -5 -98 0 -107 5 -10 8 4 9 41 0 73 24 197 54 285 95 279 299 513
566 646 41 21 66 38 55 38 -11 0 -53 -18 -93 -40z"/>
<path d="M3010 3571 c0 -5 4 -12 9 -15 5 -3 7 -15 4 -26 -3 -11 -2 -31 1 -46
6 -21 9 -24 21 -14 16 13 21 60 7 60 -5 0 -8 10 -8 22 1 14 -6 24 -16 26 -10
2 -18 -1 -18 -7z"/>
<path d="M1300 3555 c0 -10 10 -15 26 -15 18 0 38 -12 61 -37 46 -48 56 -77
42 -120 -15 -45 -49 -67 -95 -60 -36 6 -36 6 -18 -14 16 -17 16 -22 4 -29 -10
-6 -23 -2 -41 16 -21 20 -28 22 -37 12 -6 -8 -7 -19 -3 -26 4 -8 6 -24 3 -38
l-5 -25 -23 22 c-23 21 -24 21 -24 3 0 -11 16 -30 37 -44 30 -21 48 -25 105
-25 57 0 71 3 80 19 7 12 13 15 17 7 12 -19 75 33 104 87 31 58 35 97 10 107
-17 6 -17 7 0 20 12 9 17 23 15 42 -2 22 -8 28 -28 28 -24 0 -25 -2 -22 -62 5
-77 -16 -124 -72 -165 -25 -18 -40 -36 -38 -46 3 -13 1 -14 -12 -3 -12 10 -16
11 -16 1 0 -9 -4 -9 -12 -3 -7 6 -29 13 -49 17 -38 7 -76 36 -48 36 8 0 29 -4
48 -10 26 -7 42 -5 77 12 53 24 80 56 95 111 15 56 -1 104 -51 156 -35 36 -45
41 -85 41 -33 0 -45 -4 -45 -15z"/>
<path d="M1283 3498 c-13 -6 -23 -18 -23 -27 0 -9 -3 -27 -6 -41 l-6 -25 26
28 c33 34 70 35 91 3 18 -27 10 -56 -15 -56 -22 0 -35 16 -20 25 18 11 10 26
-12 23 -48 -7 -22 -78 29 -78 29 0 63 33 63 62 0 12 -12 39 -26 60 -28 40 -56
48 -101 26z"/>
<path d="M594 3479 c-8 -13 13 -29 39 -29 21 0 14 15 -13 30 -13 7 -21 7 -26
-1z"/>
<path d="M4507 3380 c-6 -22 5 -25 34 -10 26 15 24 30 -5 30 -15 0 -26 -7 -29
-20z"/>
<path d="M655 3360 c-3 -5 -1 -10 4 -10 6 0 11 5 11 10 0 6 -2 10 -4 10 -3 0
-8 -4 -11 -10z"/>
<path d="M2255 3340 c4 -6 11 -8 16 -5 14 9 11 15 -7 15 -8 0 -12 -5 -9 -10z"/>
<path d="M525 3290 c-3 -5 -1 -10 4 -10 6 0 11 5 11 10 0 6 -2 10 -4 10 -3 0
-8 -4 -11 -10z"/>
<path d="M2146 3255 c4 -8 8 -15 10 -15 2 0 4 7 4 15 0 8 -4 15 -10 15 -5 0
-7 -7 -4 -15z"/>
<path d="M691 3197 c-17 -21 -59 -192 -74 -304 l-14 -103 43 -25 c23 -14 52
-41 64 -60 12 -20 24 -35 25 -33 2 2 9 50 15 108 6 58 22 154 36 215 13 60 24
115 24 121 0 7 -11 14 -25 16 -19 4 -25 1 -25 -13 0 -11 5 -19 11 -19 8 0 8
-4 -1 -15 -6 -8 -9 -19 -5 -25 3 -5 -1 -10 -9 -10 -21 0 -30 -37 -16 -71 16
-37 5 -51 -11 -15 -14 30 -22 32 -39 11 -10 -12 -10 -15 4 -15 9 0 16 -5 16
-11 0 -9 -37 -4 -49 7 -2 2 8 21 23 42 27 40 33 62 16 62 -5 0 -10 5 -10 10 0
6 6 10 14 10 24 0 30 20 10 34 -19 15 -10 40 12 32 8 -3 14 -1 14 4 0 6 -7 10
-15 10 -11 0 -14 7 -9 25 7 27 -7 33 -25 12z m24 -327 c3 -6 3 -10 -2 -10 -11
1 -43 26 -43 34 0 9 37 -11 45 -24z m-25 -16 c14 -8 17 -13 7 -10 -10 3 -25 6
-33 6 -8 0 -14 5 -14 10 0 14 10 12 40 -6z"/>
<path d="M1265 3122 c-4 -11 1 -23 14 -33 18 -15 19 -18 5 -23 -9 -4 -23 -1
-32 6 -13 11 -14 7 -10 -36 4 -35 2 -57 -9 -72 -12 -19 -12 -36 -4 -99 10 -69
27 -122 36 -113 2 2 13 45 24 95 19 86 48 171 84 254 l16 36 -59 1 c-46 1 -60
-3 -65 -16z m23 -102 c1 -30 -12 -48 -23 -31 -7 12 4 61 15 61 4 0 7 -13 8
-30z"/>
<path d="M4330 3112 c-8 -9 -15 -28 -15 -41 0 -13 -6 -26 -12 -28 -8 -3 -13 5
-13 21 0 14 -4 26 -9 26 -5 0 -9 -16 -8 -35 1 -19 4 -35 9 -35 20 0 76 62 76
85 0 29 -7 31 -28 7z"/>
<path d="M1585 3031 c-65 -131 -105 -291 -105 -427 l0 -105 46 -45 c45 -43 46
-45 34 -75 -9 -20 -10 -33 -3 -37 5 -4 13 -16 17 -26 7 -19 7 -19 29 2 18 18
23 36 25 95 6 138 6 139 29 116 17 -17 51 50 45 89 -4 27 -1 32 17 32 12 0 21
-6 21 -15 0 -13 4 -14 23 -4 29 16 38 31 26 45 -5 7 -7 24 -3 38 4 19 13 26
30 26 23 0 24 3 24 60 0 57 -1 60 -25 60 -21 0 -25 5 -25 31 0 18 7 37 17 44
14 10 15 16 5 27 -6 8 -8 18 -4 23 4 4 -4 5 -18 1 -14 -4 -52 -10 -85 -13 -56
-5 -61 -4 -72 18 -19 38 -20 62 -5 92 7 16 11 31 8 34 -2 3 -25 -36 -51 -86z
m132 -103 c-3 -8 -6 -5 -6 6 -1 11 2 17 5 13 3 -3 4 -12 1 -19z m-70 -45 c-3
-10 -5 -4 -5 12 0 17 2 24 5 18 2 -7 2 -21 0 -30z m70 -45 c-3 -7 -5 -2 -5 12
0 14 2 19 5 13 2 -7 2 -19 0 -25z m103 -28 c0 -16 0 -32 0 -35 0 -3 -3 -4 -7
-3 -13 4 -16 68 -4 68 6 0 11 -13 11 -30z m-173 -17 c-3 -10 -5 -4 -5 12 0 17
2 24 5 18 2 -7 2 -21 0 -30z m83 -29 c0 -8 -19 -13 -24 -6 -3 5 1 9 9 9 8 0
15 -2 15 -3z m-65 -45 c8 -24 -16 -55 -34 -45 -12 8 -15 49 -4 59 13 14 32 7
38 -14z m57 -14 c3 -14 1 -25 -3 -25 -5 0 -9 11 -9 25 0 14 2 25 4 25 2 0 6
-11 8 -25z m-57 -100 c0 -23 -4 -30 -20 -30 -21 0 -31 25 -21 51 11 28 41 12
41 -21z m-118 -22 c-3 -10 -5 -2 -5 17 0 19 2 27 5 18 2 -10 2 -26 0 -35z m8
-79 c0 -19 -6 -30 -17 -32 -14 -3 -18 3 -18 26 0 16 3 32 7 36 14 13 28 -1 28
-30z"/>
<path d="M1635 2717 c-4 -10 -3 -23 3 -29 14 -14 21 3 12 27 -7 19 -8 19 -15
2z"/>
<path d="M1637 2623 c-3 -5 -1 -17 4 -28 7 -17 8 -17 8 8 1 27 -4 34 -12 20z"/>
<path d="M1530 2505 c0 -14 5 -25 10 -25 6 0 10 11 10 25 0 14 -4 25 -10 25
-5 0 -10 -11 -10 -25z"/>
<path d="M835 3072 c-18 -43 -46 -184 -56 -276 -14 -125 -5 -466 14 -556 39
-180 88 -323 162 -470 29 -59 61 -112 70 -120 9 -8 30 -41 47 -74 33 -66 115
-176 131 -176 13 0 3 61 -18 102 -9 18 -35 47 -59 65 -32 23 -49 46 -66 90
-13 32 -34 72 -46 88 -24 33 -107 196 -119 234 -5 16 -4 21 4 17 21 -13 11 27
-18 73 -38 60 -63 177 -65 299 -2 137 3 148 61 154 27 3 68 15 93 26 l45 21
-37 0 c-45 1 -50 17 -8 26 58 13 37 20 -56 20 -101 -1 -107 1 -117 28 -7 19
27 258 59 414 5 27 -11 39 -21 15z"/>
<path d="M2562 3060 c0 -14 2 -19 5 -12 2 6 2 18 0 25 -3 6 -5 1 -5 -13z"/>
<path d="M890 2955 c0 -7 12 -16 26 -19 38 -10 40 -1 5 17 -25 12 -31 13 -31
2z"/>
<path d="M1800 2895 c0 -14 5 -25 10 -25 6 0 10 11 10 25 0 14 -4 25 -10 25
-5 0 -10 -11 -10 -25z"/>
<path d="M885 2866 c-15 -20 -25 -39 -22 -42 3 -3 13 6 23 21 l18 27 18 -24
19 -23 -7 25 c-14 52 -20 54 -49 16z"/>
<path d="M901 2824 c0 -11 3 -14 6 -6 3 7 2 16 -1 19 -3 4 -6 -2 -5 -13z"/>
<path d="M876 2756 c-12 -20 -13 -31 -5 -55 13 -36 10 -35 43 -20 20 9 29 9
41 -1 9 -8 15 -8 15 -2 0 16 -19 25 -50 24 -33 -1 -47 30 -22 50 12 10 14 10
8 1 -4 -8 -2 -13 7 -13 10 0 13 7 10 20 -7 27 -27 25 -47 -4z"/>
<path d="M432 2744 c-66 -33 -103 -85 -110 -154 -7 -74 5 -117 45 -161 101
-112 249 -105 331 15 28 43 32 56 32 115 0 50 -6 76 -23 106 -55 97 -173 131
-275 79z m168 -16 c101 -52 138 -162 88 -258 -33 -62 -112 -104 -178 -95 -78
12 -125 48 -155 117 -40 97 10 207 112 243 54 20 83 18 133 -7z"/>
<path d="M485 2696 c-11 -7 -31 -16 -45 -19 -34 -8 -62 -71 -58 -129 l3 -43
47 3 c40 2 49 0 59 -19 10 -19 9 -25 -7 -36 -10 -7 -24 -13 -33 -13 -18 0 -6
-13 17 -18 36 -8 98 -10 120 -5 28 7 29 23 2 23 -45 0 -38 74 7 83 15 3 35 1
44 -4 44 -23 42 61 -3 126 -16 24 -37 39 -70 50 -57 18 -59 18 -83 1z"/>
<path d="M4505 2752 c-79 -50 -121 -131 -112 -214 8 -63 32 -104 85 -145 82
-62 188 -54 260 20 50 51 62 82 62 157 0 49 -5 65 -32 106 -41 59 -93 87 -173
92 -46 2 -67 -1 -90 -16z m198 -39 c103 -72 103 -240 -1 -307 -162 -106 -357
72 -267 244 49 95 178 125 268 63z"/>
<path d="M4571 2660 c-51 -63 -71 -107 -71 -150 0 -70 68 -114 133 -86 66 27
75 88 25 157 -21 28 -34 60 -38 89 l-5 45 -44 -55z m93 -132 c6 -26 -9 -47
-24 -32 -10 10 -2 54 10 54 4 0 10 -10 14 -22z"/>
<path d="M3505 2719 c-7 -10 8 -24 57 -53 15 -10 29 -12 32 -7 8 12 -54 57
-72 53 -8 -2 -11 1 -7 7 3 6 4 11 1 11 -3 0 -8 -5 -11 -11z"/>
<path d="M4200 2720 c-8 -5 -4 -9 12 -14 22 -6 22 -7 4 -21 -11 -8 -30 -12
-47 -8 -16 3 -29 1 -29 -4 0 -6 17 -13 37 -16 41 -7 73 12 73 43 0 19 -31 32
-50 20z"/>
<path d="M1800 2705 c0 -8 5 -15 10 -15 6 0 10 7 10 15 0 8 -4 15 -10 15 -5 0
-10 -7 -10 -15z"/>
<path d="M1711 2624 c0 -11 3 -14 6 -6 3 7 2 16 -1 19 -3 4 -6 -2 -5 -13z"/>
<path d="M900 2475 c0 -9 6 -12 15 -9 8 4 15 10 15 15 0 5 -7 9 -15 9 -8 0
-15 -7 -15 -15z"/>
<path d="M4200 2471 c-8 -6 -17 -8 -21 -5 -10 5 -33 -55 -25 -64 4 -4 12 1 17
11 6 9 19 17 29 17 16 0 20 -7 20 -32 0 -39 14 -28 16 13 1 19 -3 29 -12 29
-8 0 -14 5 -14 10 0 6 9 10 21 10 11 0 17 5 14 10 -8 12 -25 13 -45 1z"/>
<path d="M310 2434 c0 -11 7 -74 15 -139 30 -233 113 -500 218 -705 70 -138
77 -147 77 -95 1 74 58 167 123 201 26 14 27 15 12 44 -59 115 -131 343 -158
503 l-13 78 -59 3 c-74 3 -130 31 -179 87 -28 34 -36 38 -36 23z m212 -162 c4
-14 -2 -17 -34 -17 -21 0 -43 -6 -47 -13 -6 -10 -10 -10 -21 2 -14 18 -11 20
55 35 22 5 41 9 41 10 1 1 4 -7 6 -17z m9 -81 c31 -26 17 -52 -34 -65 -40 -10
-67 3 -67 34 0 25 21 40 71 49 4 0 17 -8 30 -18z m33 -107 c10 -27 7 -29 -35
-29 -22 0 -44 -6 -48 -13 -6 -10 -10 -10 -20 2 -14 17 -8 22 42 31 20 4 37 11
37 16 0 15 17 10 24 -7z m26 -104 c0 -10 -11 -15 -32 -16 -17 -1 -37 -8 -43
-17 -9 -12 -14 -14 -23 -5 -19 19 -15 24 29 37 22 7 43 19 46 27 5 13 7 13 14
2 5 -7 9 -20 9 -28z m30 -93 c0 -10 -4 -16 -9 -13 -17 11 -71 -6 -71 -21 0
-13 -3 -13 -15 -3 -23 19 -19 26 24 40 22 7 43 20 46 29 5 13 7 14 15 1 6 -8
10 -23 10 -33z m35 -76 c9 -28 -4 -49 -37 -60 -40 -14 -44 -14 -62 5 -21 21
-20 29 6 54 28 26 84 27 93 1z m35 -91 c0 -5 -13 -16 -29 -25 -16 -8 -31 -20
-34 -27 -3 -10 -9 -9 -22 4 -16 15 -15 17 26 36 52 24 59 25 59 12z"/>
<path d="M454 2169 c-10 -18 11 -31 40 -23 36 9 34 34 -3 34 -17 0 -33 -5 -37
-11z"/>
<path d="M588 1799 c-27 -15 -23 -42 5 -33 27 8 47 23 47 35 0 12 -31 11 -52
-2z"/>
<path d="M717 2421 c-12 -21 -78 -75 -104 -86 -5 -2 18 -131 37 -215 24 -103
55 -197 105 -312 l37 -88 57 0 c31 0 66 -3 79 -6 21 -6 20 -2 -17 80 -81 175
-132 352 -157 540 -8 60 -16 111 -17 113 -2 1 -11 -10 -20 -26z m13 -131 c0
-5 -5 -10 -12 -10 -6 0 -3 -9 7 -20 22 -24 21 -25 -30 -34 -26 -5 -37 -4 -30
2 6 6 21 12 35 14 24 3 24 4 -7 18 -40 18 -42 27 -5 33 15 2 30 5 35 6 4 0 7
-3 7 -9z m-10 -120 c0 -5 7 -10 15 -10 18 0 19 -7 3 -24 -19 -20 -58 -8 -57
18 0 20 1 20 9 1 8 -19 9 -19 9 3 1 21 21 33 21 12z m58 -141 c-7 -3 -25 -9
-40 -13 -21 -5 -28 -3 -28 8 0 9 6 13 14 10 8 -3 17 -1 20 5 4 5 -3 12 -14 16
-11 3 -20 11 -20 16 0 6 18 0 40 -12 27 -15 36 -25 28 -30z m32 -67 c0 -10 5
-23 12 -30 10 -10 3 -11 -32 -8 -31 3 -44 9 -42 18 6 22 22 34 22 15 0 -9 7
-17 16 -17 11 0 14 6 9 20 -4 11 -2 20 4 20 6 0 11 -8 11 -18z m40 -97 c0 -8
-3 -14 -7 -14 -23 4 -25 -3 -4 -15 l25 -14 -33 -17 c-18 -9 -34 -15 -35 -13
-1 2 -7 14 -13 28 -9 22 -7 27 21 42 39 21 46 22 46 3z"/>
<path d="M805 1820 c3 -5 10 -10 16 -10 5 0 9 5 9 10 0 6 -7 10 -16 10 -8 0
-12 -4 -9 -10z"/>
<path d="M4375 2381 c-19 -190 -81 -411 -160 -578 l-44 -94 37 8 c20 4 56 7
78 6 l42 -2 27 61 c66 148 125 344 144 483 9 62 8 71 -7 79 -9 5 -38 30 -63
56 l-47 48 -7 -67z m55 -136 c6 -4 14 -4 18 0 3 3 0 10 -8 15 -11 7 -8 10 13
10 25 0 26 -2 15 -20 -15 -23 -37 -26 -63 -6 -13 9 -16 19 -11 32 8 18 8 18
16 -2 5 -12 14 -25 20 -29z m23 -74 c8 -8 -20 -37 -41 -43 -7 -2 -20 12 -27
31 l-15 33 38 -7 c20 -3 40 -10 45 -14z m-30 -101 c10 -9 -13 -50 -28 -50 -10
0 -45 50 -45 65 0 8 62 -4 73 -15z m-36 -98 c8 -5 -2 -12 -27 -19 -31 -8 -40
-7 -40 3 0 18 46 30 67 16z m-37 -67 c7 -8 8 -15 2 -15 -5 0 -15 7 -22 15 -7
8 -8 15 -2 15 5 0 15 -7 22 -15z m-10 -78 c0 -5 -9 -5 -21 -2 -19 6 -20 5 -9
-15 6 -12 10 -24 7 -26 -7 -7 -57 18 -57 28 0 5 9 4 21 -2 19 -10 20 -10 10 9
-18 33 -13 40 19 28 17 -6 30 -15 30 -20z"/>
<path d="M4402 2159 c2 -6 8 -10 13 -10 5 0 11 4 13 10 2 6 -4 11 -13 11 -9 0
-15 -5 -13 -11z"/>
<path d="M4380 2060 c0 -13 18 -22 24 -11 3 5 -1 11 -9 15 -8 3 -15 1 -15 -4z"/>
<path d="M4782 2411 c-36 -49 -104 -83 -177 -89 -36 -2 -65 -6 -65 -8 0 -1
-11 -59 -25 -127 -27 -133 -72 -277 -125 -397 -30 -69 -31 -75 -15 -85 75 -43
122 -113 127 -189 2 -25 6 -46 10 -46 3 0 35 60 71 133 110 224 181 458 213
699 8 65 14 124 12 129 -2 6 -13 -3 -26 -20z m-170 -159 c5 -13 68 -23 68 -11
0 6 5 7 10 4 6 -3 10 -13 10 -22 0 -13 -9 -15 -44 -11 -25 3 -49 1 -55 -5 -8
-8 -11 -2 -11 21 0 29 14 44 22 24z m49 -92 c21 -12 25 -50 7 -68 -17 -17 -49
-15 -76 4 -57 40 5 98 69 64z m-68 -121 c12 -1 31 -2 42 -3 11 -1 21 -9 23
-20 4 -17 0 -18 -29 -11 -19 5 -46 8 -61 8 -31 0 -34 8 -16 40 11 19 13 20 16
5 2 -10 13 -19 25 -19z m15 -85 c38 -26 23 -74 -24 -74 -25 0 -74 36 -74 54 0
36 59 48 98 20z m-53 -98 c34 -15 41 -29 29 -60 -9 -23 -69 -21 -94 4 -24 24
-25 34 -4 54 19 20 26 20 69 2z m-26 -122 c5 3 12 -1 15 -9 9 -23 -18 -29 -53
-11 -16 9 -37 16 -46 16 -12 0 -14 4 -5 20 10 19 11 19 45 -1 19 -11 39 -18
44 -15z"/>
<path d="M4595 2140 c-9 -15 3 -27 38 -35 23 -6 27 -4 27 14 0 12 -6 21 -14
21 -8 0 -21 3 -29 6 -8 3 -18 0 -22 -6z"/>
<path d="M4536 1941 c-11 -17 26 -36 64 -32 11 1 9 7 -9 21 -25 21 -46 26 -55
11z"/>
<path d="M4502 1828 c6 -16 55 -34 65 -24 10 10 -26 36 -50 36 -10 0 -17 -5
-15 -12z"/>
<path d="M881 2413 c-1 -12 4 -25 9 -28 12 -7 12 2 0 30 -8 19 -9 19 -9 -2z"/>
<path d="M4192 2305 c4 -4 3 -14 -3 -21 -14 -17 -2 -54 17 -54 19 0 18 -49 -1
-56 -8 -4 -15 -15 -15 -26 0 -17 3 -18 15 -8 8 7 12 16 9 21 -3 5 2 9 10 9 32
0 9 116 -27 136 -7 4 -9 4 -5 -1z"/>
<path d="M4066 2284 c-3 -8 -1 -24 4 -35 6 -10 7 -19 3 -19 -8 0 -43 -120 -43
-144 0 -15 63 3 87 26 46 43 37 149 -16 178 -26 13 -28 13 -35 -6z"/>
<path d="M3972 2176 c-37 -36 -41 -61 -11 -77 17 -8 23 -8 29 2 9 13 24 99 18
104 -2 1 -18 -11 -36 -29z"/>
<path d="M3895 2079 c-4 -6 -14 -8 -22 -5 -33 13 -68 -21 -102 -101 -19 -43
-40 -85 -46 -93 -7 -8 -26 -41 -44 -72 -26 -47 -30 -61 -21 -78 6 -11 15 -20
21 -20 16 0 23 31 9 40 -15 10 -6 41 11 38 7 -2 19 19 27 47 8 28 23 62 33 77
11 14 19 33 19 41 0 14 28 32 37 24 2 -2 -10 -30 -27 -63 -31 -61 -50 -138
-50 -205 0 -54 41 -98 96 -106 83 -11 154 54 154 142 0 48 -13 71 -71 125 -27
25 -56 61 -64 81 l-14 36 39 32 c22 18 40 27 40 20 0 -6 -11 -20 -25 -31 -31
-24 -32 -49 -1 -84 l23 -28 30 79 31 78 -36 19 c-43 21 -39 21 -47 7z m-39
-264 c4 -8 20 -22 38 -30 63 -30 69 -117 10 -144 -41 -18 -64 -13 -101 24 -28
28 -32 38 -24 53 5 10 7 29 4 40 -4 19 -2 22 18 20 18 -2 24 2 25 17 1 11 2
23 3 28 2 13 21 8 27 -8z m59 -5 c3 -5 -1 -10 -9 -10 -9 0 -16 5 -16 10 0 6 4
10 9 10 6 0 13 -4 16 -10z"/>
<path d="M3830 1735 c-7 -8 -10 -25 -6 -39 11 -45 71 -45 82 0 8 30 -11 54
-41 54 -12 0 -28 -7 -35 -15z"/>
<path d="M4125 2062 c-6 -4 -11 -19 -12 -34 -1 -21 5 -29 30 -37 16 -6 39 -11
49 -11 29 0 16 24 -15 28 -14 2 -31 10 -38 18 -10 12 -9 16 9 21 12 3 19 9 16
14 -6 11 -25 11 -39 1z"/>
<path d="M3700 1990 c-28 -23 -30 -24 -65 -64 -29 -33 -30 -37 -12 -55 10 -10
9 -11 -4 -6 -24 9 -32 -22 -13 -50 9 -14 20 -22 25 -19 12 7 85 131 104 177
18 43 6 49 -35 17z"/>
<path d="M3584 1904 c-4 -10 -9 -22 -11 -26 -2 -5 0 -8 5 -8 10 0 24 41 17 48
-3 3 -8 -4 -11 -14z"/>
<path d="M1070 1760 c-8 -5 -11 -12 -8 -16 10 -9 38 3 38 16 0 12 -10 13 -30
0z"/>
<path d="M1050 1720 c0 -5 7 -10 15 -10 8 0 15 5 15 10 0 6 -7 10 -15 10 -8 0
-15 -4 -15 -10z"/>
<path d="M786 1685 c-47 -16 -103 -69 -122 -112 -29 -67 -11 -168 39 -221 60
-64 176 -82 252 -39 81 46 124 153 96 239 -20 60 -76 116 -133 133 -62 18 -81
18 -132 0z m131 -26 c34 -13 80 -55 99 -91 18 -34 18 -109 0 -151 -52 -125
-248 -136 -315 -17 -25 44 -28 127 -7 168 43 82 141 122 223 91z"/>
<path d="M778 1623 c-16 -8 -32 -23 -38 -33 -9 -16 -7 -18 12 -16 37 4 59 18
54 32 -4 10 3 14 24 14 33 0 41 -16 13 -23 -17 -4 -17 -5 0 -6 10 0 16 -5 13
-10 -3 -5 -16 -7 -29 -3 l-22 5 20 -22 c14 -16 27 -21 46 -17 24 4 49 -8 49
-24 0 -7 -1 -8 -88 -16 -51 -5 -66 -11 -82 -32 -23 -28 -25 -54 -8 -85 19 -37
40 -46 103 -47 72 0 103 14 65 29 -25 10 -25 10 6 10 35 1 84 34 84 57 0 12
-5 11 -27 -3 l-28 -18 28 33 c30 38 35 82 12 122 -8 14 -14 19 -15 10 0 -10
-5 -7 -16 8 -34 49 -118 66 -176 35z m136 -49 c3 -8 2 -13 -2 -11 -4 2 -15 7
-25 10 -10 4 -16 11 -12 16 8 13 32 3 39 -15z m-10 -116 c-8 -26 -24 -39 -37
-31 -5 3 2 16 14 29 28 30 32 30 23 2z"/>
<path d="M4210 1685 c-182 -58 -185 -325 -4 -385 153 -51 305 88 264 241 -31
115 -147 179 -260 144z m165 -45 c63 -39 92 -122 70 -198 -23 -77 -99 -132
-182 -132 -53 0 -119 46 -150 103 -24 48 -19 132 12 179 51 77 167 99 250 48z"/>
<path d="M4240 1639 c-19 -4 -36 -12 -38 -18 -2 -6 -10 -11 -18 -11 -22 0 -54
-61 -54 -103 0 -34 4 -40 35 -53 32 -13 35 -17 35 -58 0 -31 5 -46 16 -50 24
-9 27 -8 19 12 -5 14 -4 15 6 5 18 -18 29 -16 29 5 0 14 2 15 10 2 9 -13 11
-13 20 0 8 12 10 10 10 -8 0 -44 25 -16 28 32 3 43 6 47 32 53 42 8 54 26 47
75 -11 78 -95 134 -177 117z m-19 -109 c10 -6 19 -20 19 -30 0 -16 -7 -20 -35
-20 -27 0 -35 4 -35 18 0 16 17 42 28 42 2 0 12 -5 23 -10z m146 2 c6 -4 13
-16 15 -27 2 -17 -3 -21 -34 -23 -32 -3 -38 0 -38 17 0 11 8 25 18 30 21 13
24 13 39 3z m-77 -97 c0 -8 -7 -15 -15 -15 -8 0 -15 5 -15 11 0 5 5 7 10 4 6
-3 10 -1 10 4 0 6 2 11 5 11 3 0 5 -7 5 -15z"/>
<path d="M1130 1650 c0 -5 5 -10 10 -10 6 0 10 5 10 10 0 6 -4 10 -10 10 -5 0
-10 -4 -10 -10z"/>
<path d="M1170 1639 c0 -9 3 -19 8 -23 4 -4 8 -12 8 -17 1 -5 2 -13 3 -18 1
-13 44 -10 53 3 11 16 -3 28 -18 15 -21 -17 -19 9 3 33 9 10 11 18 6 18 -6 0
-16 -7 -23 -15 -11 -13 -14 -13 -26 2 -11 16 -13 16 -14 2z"/>
<path d="M3193 1568 c-6 -7 -13 -37 -17 -67 -4 -30 -12 -63 -18 -75 -10 -18
-6 -17 33 6 44 26 44 27 47 87 3 55 1 61 -16 61 -11 0 -24 -6 -29 -12z"/>
<path d="M2786 1528 c-9 -12 -16 -17 -16 -10 0 7 -13 12 -31 12 -22 0 -32 -5
-36 -20 -3 -11 -9 -20 -14 -20 -5 0 -9 -8 -10 -17 0 -14 -2 -13 -9 4 -8 19
-14 21 -47 16 -74 -10 -93 -24 -93 -65 0 -39 -14 -58 -24 -32 -3 9 -6 29 -6
44 0 33 -18 49 -31 29 -13 -20 -11 -119 2 -119 6 0 9 -12 7 -27 -2 -20 -9 -29
-26 -31 -27 -4 -40 23 -24 49 7 10 12 44 12 74 l0 55 -34 0 c-19 0 -41 -7 -50
-15 -8 -8 -22 -15 -31 -15 -9 0 -13 -4 -10 -10 10 -16 45 -12 45 5 0 8 5 15
11 15 6 0 9 -10 7 -22 -2 -19 -9 -23 -38 -23 -19 0 -38 -4 -42 -10 -5 -6 -11
-5 -16 3 -7 11 -98 41 -124 42 -12 0 -10 -38 2 -45 15 -10 12 -52 -5 -59 -36
-13 -63 20 -40 51 8 10 15 30 15 45 0 23 -5 28 -35 34 -21 4 -48 1 -65 -6 -25
-11 -29 -16 -24 -39 9 -36 22 -50 63 -68 33 -14 34 -16 14 -22 -21 -6 -18 -10
38 -75 33 -37 57 -71 54 -74 -3 -3 -27 14 -53 39 -26 24 -41 37 -34 29 19 -22
15 -61 -8 -67 -36 -9 -22 -20 64 -47 91 -29 193 -50 296 -61 64 -7 65 -7 47
12 -12 15 -35 22 -79 26 l-61 5 -93 98 c-52 54 -94 99 -94 101 0 14 49 -26
120 -98 81 -84 88 -88 138 -94 l52 -7 0 29 c0 15 9 39 20 53 l19 25 -93 12
c-108 13 -176 30 -176 43 0 13 13 13 100 -6 141 -30 377 -20 532 23 54 15 58
17 72 61 9 25 16 57 16 70 0 20 -4 23 -22 18 -91 -26 -231 -56 -273 -58 -88
-5 -54 16 55 35 102 17 236 54 227 64 -3 2 -45 -7 -93 -21 -105 -30 -235 -49
-248 -36 -5 5 13 11 40 15 199 28 363 86 269 95 -36 4 -45 0 -45 -17 0 -14 -3
-13 -16 5 -19 28 -49 28 -68 0z m-98 -209 c-3 -20 -5 -19 -9 9 -3 20 -2 29 4
23 5 -5 7 -19 5 -32z"/>
<path d="M3510 1473 c0 -25 1 -26 16 -11 9 9 13 21 10 27 -13 20 -26 11 -26
-16z"/>
<path d="M1085 1453 c-4 -16 -15 -47 -25 -69 l-19 -41 54 -64 c29 -35 70 -78
92 -96 l39 -31 -10 34 c-6 19 -14 34 -18 34 -4 0 -5 14 -1 31 5 27 3 30 -13
27 -10 -2 -18 -10 -16 -17 1 -7 -2 -10 -8 -6 -16 10 -12 21 15 35 37 20 31 45
-27 122 -29 37 -53 68 -55 68 -1 0 -5 -12 -8 -27z m45 -88 c0 -8 6 -15 14 -15
8 0 17 -4 20 -9 3 -4 -12 -8 -33 -8 -38 0 -39 1 -29 23 13 27 28 32 28 9z"/>
<path d="M3760 1465 c-25 -14 -25 -14 15 -15 22 0 51 -3 65 -7 25 -6 25 -6 6
15 -22 25 -50 27 -86 7z"/>
<path d="M3964 1400 c-256 -307 -602 -528 -961 -615 -40 -9 -73 -21 -73 -27 0
-29 24 -98 34 -98 33 0 272 76 360 115 247 107 442 240 632 429 50 50 98 103
107 117 16 24 16 28 1 65 -10 21 -20 52 -23 69 -7 29 -7 29 -77 -55z m40 -102
c-3 -4 -11 -5 -19 -1 -8 3 -15 1 -15 -5 0 -6 6 -13 13 -15 7 -4 6 -6 -4 -6 -9
-1 -22 6 -29 14 -7 8 -16 12 -21 9 -5 -3 -9 -1 -9 5 0 15 18 23 25 11 4 -6 11
-8 16 -4 6 4 5 11 -2 20 -9 11 -3 10 19 -3 17 -10 28 -21 26 -25z m-98 -63
c-1 -26 -10 -32 -21 -15 -4 6 -1 17 5 25 17 20 18 19 16 -10z m-69 -47 c0 -7
4 -22 8 -33 7 -16 4 -15 -12 5 -12 14 -19 28 -16 32 7 12 20 9 20 -4z m-55
-55 c23 -21 23 -33 -1 -33 -12 0 -21 -10 -26 -27 l-7 -28 -19 24 c-24 30 -24
41 1 41 13 0 20 7 20 20 0 24 8 25 32 3z m-119 -101 c-5 -11 -2 -14 10 -9 24
9 21 -9 -5 -27 -19 -14 -23 -14 -34 2 -18 23 -17 33 0 26 11 -4 13 0 9 15 -4
16 -2 20 10 15 9 -3 13 -12 10 -22z m-97 -57 c4 -8 10 -12 15 -9 5 3 6 -2 3
-10 -3 -9 -13 -16 -21 -16 -8 0 -11 5 -8 10 3 6 1 10 -4 10 -6 0 -11 -4 -11
-10 0 -5 -4 -10 -10 -10 -6 0 -5 10 2 25 13 28 26 32 34 10z m-76 -50 c0 -8 5
-15 11 -15 5 0 7 -5 4 -10 -5 -8 -11 -7 -21 1 -16 13 -19 39 -4 39 6 0 10 -7
10 -15z m-74 -35 c0 -22 -22 -35 -32 -19 -6 10 13 39 25 39 4 0 7 -9 7 -20z
m-101 -36 c-20 -16 -20 -16 1 -10 18 6 21 3 16 -19 -6 -32 -14 -32 -29 2 -10
21 -10 28 0 35 22 14 32 8 12 -8z m125 2 c0 -2 -7 -6 -15 -10 -8 -3 -15 -1
-15 4 0 6 7 10 15 10 8 0 15 -2 15 -4z m-190 -56 c0 -24 -3 -28 -17 -23 -12 5
-13 8 -4 11 11 4 11 6 0 13 -12 8 -11 11 1 19 20 13 20 14 20 -20z m-126 -32
c11 18 23 14 29 -9 4 -16 3 -18 -9 -8 -11 9 -14 8 -14 -5 0 -9 -4 -16 -9 -16
-11 0 -21 25 -20 48 0 14 2 13 8 -2 5 -14 10 -16 15 -8z m-65 -36 c0 -24 -1
-25 -9 -7 -12 28 -12 47 0 40 6 -3 10 -18 9 -33z"/>
<path d="M3730 1090 c0 -5 5 -10 11 -10 5 0 7 5 4 10 -3 6 -8 10 -11 10 -2 0
-4 -4 -4 -10z"/>
<path d="M2240 1450 c8 -5 22 -9 30 -9 10 0 8 3 -5 9 -27 12 -43 12 -25 0z"/>
<path d="M3175 1391 c-27 -16 -65 -47 -83 -70 -41 -51 -108 -87 -146 -77 -14
3 -26 13 -26 22 0 12 -6 15 -22 10 -61 -17 -166 -37 -229 -42 l-70 -7 23 -24
c28 -30 29 -84 3 -114 l-20 -22 38 6 c33 5 67 32 97 78 3 5 35 15 70 23 36 9
66 20 68 26 7 20 42 32 58 19 38 -31 -2 -93 -42 -64 -29 20 -114 -2 -153 -39
-17 -16 -29 -31 -27 -33 9 -9 194 30 279 59 115 38 127 44 127 67 0 11 27 55
60 99 54 71 73 112 53 112 -5 0 -30 -13 -58 -29z"/>
<path d="M2130 1370 c0 -5 5 -10 10 -10 6 0 10 5 10 10 0 6 -4 10 -10 10 -5 0
-10 -4 -10 -10z"/>
<path d="M3740 1345 c-31 -33 -22 -40 12 -10 16 13 24 26 19 29 -4 3 -19 -6
-31 -19z"/>
<path d="M3211 1314 c-44 -50 -76 -102 -68 -110 2 -3 24 6 47 18 33 18 46 32
57 63 8 22 12 49 11 59 -2 16 -11 11 -47 -30z"/>
<path d="M2440 1320 c0 -5 4 -10 9 -10 6 0 13 5 16 10 3 6 -1 10 -9 10 -9 0
-16 -4 -16 -10z"/>
<path d="M960 1288 c-48 -26 -63 -29 -115 -25 -34 2 -75 12 -93 21 -18 9 -32
13 -32 9 0 -20 179 -230 281 -328 258 -249 562 -430 898 -534 125 -39 230 -64
326 -77 l49 -7 -17 24 c-38 52 -77 146 -83 200 l-6 57 -72 18 c-113 27 -241
72 -361 125 -61 27 -120 49 -131 48 -50 -5 -65 2 -96 46 -18 25 -69 72 -113
104 -108 79 -209 170 -296 266 -40 44 -75 80 -78 81 -3 1 -31 -12 -61 -28z
m65 -68 c18 -20 18 -21 -2 -48 -15 -20 -29 -27 -54 -27 -29 0 -35 4 -37 25 -3
17 4 31 25 47 35 28 45 29 68 3z m61 -67 c15 -20 18 -37 6 -29 -14 9 -52 -24
-52 -45 0 -20 -8 -23 -27 -11 -9 6 -5 17 17 43 16 18 29 40 30 47 0 17 10 15
26 -5z m80 -90 c6 -22 1 -32 -25 -55 -26 -23 -35 -26 -51 -18 -26 14 -25 48 2
77 30 32 66 30 74 -4z m69 -53 c13 -14 14 -20 5 -20 -21 0 -59 -40 -53 -55 3
-10 -2 -12 -16 -8 -27 7 -27 8 9 53 16 20 27 40 23 44 -3 3 -2 6 4 6 5 0 18
-9 28 -20z m85 -83 c0 -36 -28 -67 -60 -67 -24 0 -31 5 -36 27 -6 22 -1 32 25
55 26 23 35 26 51 18 11 -6 20 -21 20 -33z m67 -28 c8 -8 4 -18 -14 -37 -14
-15 -22 -34 -20 -44 4 -12 0 -18 -12 -18 -30 0 -31 11 -4 51 13 21 22 43 18
48 -8 14 18 14 32 0z m96 -70 c7 -11 5 -24 -4 -44 -19 -38 -44 -53 -66 -39
-26 16 -27 46 -2 78 23 29 55 32 72 5z m70 -34 c18 -13 18 -14 -2 -34 -20 -20
-25 -33 -22 -58 1 -7 -7 -13 -19 -13 -25 0 -25 17 0 55 11 17 17 38 14 48 -6
20 4 21 29 2z m95 -57 c31 -31 -2 -101 -46 -96 -21 2 -28 9 -30 31 -6 54 44
97 76 65z m97 -44 c11 -12 14 -25 10 -43 -14 -56 -64 -80 -85 -42 -14 26 -13
31 10 69 22 36 40 40 65 16z m85 -34 c10 -6 11 -13 5 -17 -21 -15 -34 -60 -22
-72 8 -8 4 -11 -16 -11 l-26 0 15 42 c8 23 12 48 10 55 -6 15 13 17 34 3z m90
-30 c12 -8 13 -12 2 -19 -8 -4 -14 -24 -15 -42 -2 -32 -12 -49 -31 -49 -4 0
-5 17 0 38 4 20 7 47 7 60 -1 23 13 28 37 12z m105 -45 c17 -26 -2 -88 -28
-93 -44 -9 -65 62 -30 100 20 23 41 20 58 -7z m95 -14 c0 -5 -4 -11 -8 -13
-13 -5 -23 -68 -12 -68 6 0 10 -4 10 -10 0 -5 -9 -10 -20 -10 -18 0 -20 6 -18
55 3 49 5 55 26 55 12 0 22 -4 22 -9z"/>
<path d="M972 1204 c-25 -17 -29 -44 -8 -44 16 0 46 26 46 40 0 17 -17 19 -38
4z"/>
<path d="M1107 1052 c-20 -22 -22 -42 -4 -42 19 0 50 37 42 49 -9 16 -20 14
-38 -7z"/>
<path d="M1266 931 c-17 -19 -22 -51 -7 -51 14 0 41 30 41 45 0 23 -16 26 -34
6z"/>
<path d="M1426 808 c-20 -28 -20 -48 -1 -48 16 0 35 30 35 54 0 23 -16 20 -34
-6z"/>
<path d="M1596 701 c-15 -29 -13 -41 9 -41 11 0 35 41 35 60 0 21 -30 8 -44
-19z"/>
<path d="M1706 675 c-17 -18 -22 -65 -6 -65 5 0 17 14 26 31 19 37 6 59 -20
34z"/>
<path d="M1979 567 c-12 -27 -7 -57 10 -57 14 0 25 60 12 73 -7 7 -14 2 -22
-16z"/>
<path d="M3985 1196 c-266 -272 -589 -459 -942 -546 l-93 -23 0 -33 c0 -50
-33 -146 -69 -197 -38 -55 -41 -55 105 -26 446 86 856 309 1185 646 86 87 232
263 225 271 -2 2 -19 -4 -37 -13 -49 -26 -156 -16 -209 19 -22 14 -41 26 -42
25 -2 0 -57 -56 -123 -123z m157 -3 c11 -12 26 -19 34 -16 8 3 14 -1 14 -10 0
-28 -20 -29 -51 -3 -17 14 -37 26 -45 26 -19 0 -18 9 3 32 13 15 19 16 22 6 2
-7 12 -23 23 -35z m-45 -55 c29 -27 30 -64 2 -79 -40 -21 -93 40 -75 87 8 21
47 17 73 -8z m-117 -60 c1 -20 38 -60 50 -53 5 3 10 -1 10 -9 0 -30 -23 -29
-51 2 -16 18 -33 32 -39 32 -14 0 -13 13 2 28 16 16 28 15 28 0z m-30 -115
c11 -3 20 -11 20 -19 0 -28 -21 -24 -51 10 -17 20 -35 33 -40 30 -5 -3 -9 2
-9 10 0 8 8 19 17 25 14 7 20 4 30 -21 7 -16 22 -32 33 -35z m-110 -10 c1 -23
23 -53 39 -53 15 0 11 -32 -4 -37 -5 -1 -21 13 -34 32 -13 19 -30 35 -39 35
-13 0 -12 3 3 20 22 25 35 26 35 3z m-46 -74 c31 -37 32 -50 7 -73 -27 -24
-55 -13 -75 28 -20 42 -20 41 0 60 23 23 39 20 68 -15z m-112 -70 c11 -25 22
-38 29 -34 7 5 10 1 7 -10 -6 -33 -27 -27 -48 15 -11 22 -25 38 -30 35 -6 -4
-10 0 -10 9 0 12 12 23 30 25 3 0 13 -18 22 -40z m-87 -18 c-8 -14 16 -61 32
-61 17 0 17 -14 -1 -29 -10 -9 -17 -6 -30 13 -9 14 -16 30 -16 35 0 6 -8 15
-17 20 -16 9 -16 12 -3 21 19 12 43 13 35 1z m-55 -71 c18 -44 10 -74 -22 -78
-31 -4 -58 28 -58 70 0 52 59 58 80 8z m-120 -20 c20 -11 42 -64 34 -85 -3 -7
-13 -16 -21 -19 -30 -12 -52 5 -65 46 -11 36 -10 42 7 54 22 17 22 17 45 4z
m-104 -46 c-6 -16 9 -54 27 -66 7 -4 6 -12 -3 -23 -16 -19 -24 -12 -40 38 -6
20 -16 37 -21 37 -16 0 -10 18 9 23 31 8 34 7 28 -9z m-90 -29 c-7 -18 10 -66
27 -77 9 -6 8 -10 -3 -18 -18 -11 -24 -5 -40 43 -6 20 -16 37 -21 37 -16 0
-10 18 9 23 31 8 34 7 28 -8z m-88 -52 c1 -21 8 -43 16 -49 12 -8 13 -13 4
-22 -20 -20 -27 -14 -39 31 -6 23 -16 45 -23 50 -8 5 -7 10 4 17 27 18 37 11
38 -27z m-67 -33 c11 -38 11 -43 -9 -63 -18 -17 -26 -19 -40 -11 -23 15 -36
55 -28 88 5 21 12 26 36 26 25 0 31 -5 41 -40z"/>
<path d="M4040 1127 c0 -16 32 -47 48 -47 20 0 13 28 -10 44 -28 20 -38 20
-38 3z"/>
<path d="M3740 866 c0 -8 9 -24 19 -37 17 -21 20 -22 26 -7 4 9 2 26 -5 37
-12 24 -40 28 -40 7z"/>
<path d="M3480 720 c0 -20 24 -60 37 -60 16 0 17 24 3 51 -11 19 -40 27 -40 9z"/>
<path d="M3387 673 c-6 -10 9 -49 22 -57 15 -9 22 10 15 39 -6 24 -28 34 -37
18z"/>
<path d="M3016 551 c-11 -16 5 -61 21 -61 10 0 13 9 11 32 -3 32 -21 48 -32
29z"/>
<path d="M3524 1258 c3 -7 9 -21 12 -30 4 -10 13 -18 20 -18 8 0 14 -7 14 -16
0 -8 4 -13 10 -9 12 7 2 32 -24 62 -21 25 -42 31 -32 11z"/>
<path d="M1360 1241 c0 -10 11 -26 25 -35 24 -16 25 -15 25 2 0 18 -29 52 -43
52 -4 0 -7 -8 -7 -19z"/>
<path d="M3477 1198 c-10 -11 -17 -21 -15 -24 6 -6 48 26 48 37 0 14 -13 9
-33 -13z"/>
<path d="M2518 1189 c-27 -15 -24 -74 4 -93 31 -22 45 -20 73 9 30 29 31 49 5
75 -22 22 -55 25 -82 9z m51 -28 c17 -11 7 -41 -13 -41 -19 0 -28 14 -20 34 7
18 13 19 33 7z"/>
<path d="M2900 1185 c0 -8 7 -15 15 -15 8 0 15 7 15 15 0 8 -7 15 -15 15 -8 0
-15 -7 -15 -15z"/>
<path d="M1347 1183 c-12 -11 -7 -44 8 -59 8 -9 15 -20 15 -25 0 -15 -18 -10
-28 7 -8 15 -11 15 -30 -4 l-20 -20 67 -50 c36 -27 78 -57 93 -66 l27 -18 -9
34 c-4 18 -11 45 -14 61 -6 24 -9 26 -27 16 -11 -6 -18 -17 -15 -24 3 -9 0
-12 -10 -8 -20 7 -18 16 11 43 14 13 25 27 25 32 0 10 -70 88 -79 88 -4 0 -11
-3 -14 -7z m53 -72 c0 -6 -4 -13 -10 -16 -5 -3 -10 1 -10 9 0 9 5 16 10 16 6
0 10 -4 10 -9z"/>
<path d="M1919 1166 c12 -13 38 -32 57 -42 18 -10 34 -22 34 -27 0 -4 5 -5 10
-2 6 4 35 1 65 -5 l54 -11 -17 -35 c-16 -35 -17 -35 -27 -12 -12 28 -35 47
-55 47 -12 0 -11 -2 3 -10 9 -6 15 -15 11 -20 -3 -6 8 -25 26 -42 17 -17 39
-45 47 -61 9 -17 35 -51 58 -75 l42 -43 51 54 c156 165 402 166 564 3 l55 -55
79 90 c43 50 83 98 88 108 5 9 18 23 28 30 10 7 18 23 17 35 0 12 -3 16 -6 9
-2 -6 -9 -10 -14 -6 -9 5 -34 -43 -30 -59 0 -4 -16 2 -38 15 l-40 23 52 18
c86 30 146 59 164 80 18 19 17 19 -22 2 -401 -171 -721 -184 -1122 -44 -46 15
-96 35 -112 44 -42 21 -48 19 -22 -9z"/>
<path d="M3413 1165 c-8 -9 -9 -22 -3 -41 8 -28 8 -28 10 -4 l1 25 16 -22 c8
-13 19 -23 23 -23 12 0 2 32 -18 57 -14 18 -19 19 -29 8z"/>
<path d="M3494 1166 c-10 -8 -16 -17 -13 -20 7 -7 59 16 59 27 0 12 -25 8 -46
-7z"/>
<path d="M3332 1066 c-15 -40 -15 -56 -2 -56 6 0 10 12 10 26 0 24 3 25 28 19
23 -5 25 -4 12 7 -8 7 -20 18 -26 25 -8 9 -13 4 -22 -21z"/>
<path d="M3140 1055 c-10 -12 -10 -15 4 -15 9 0 16 7 16 15 0 8 -2 15 -4 15
-2 0 -9 -7 -16 -15z"/>
<path d="M1652 1023 c9 -49 471 -236 545 -221 11 2 -6 26 -51 73 l-67 70 4
-42 c5 -43 2 -48 -27 -37 -13 5 -15 14 -10 40 8 43 -13 47 -27 5 l-10 -29 -52
13 c-55 13 -178 69 -260 117 -41 24 -48 26 -45 11z"/>
<path d="M3276 1021 c-4 -7 -5 -15 -2 -18 9 -9 19 4 14 18 -4 11 -6 11 -12 0z"/>
<path d="M3166 1005 c4 -8 15 -15 25 -15 10 0 19 -4 19 -10 0 -5 -10 -10 -22
-10 -15 0 -19 -3 -11 -11 15 -15 63 0 63 20 0 10 -11 23 -25 29 -36 17 -56 15
-49 -3z"/>
<path d="M2441 951 c-144 -54 -232 -180 -232 -335 0 -140 76 -262 200 -323 49
-25 68 -28 151 -28 77 0 104 4 142 22 62 28 144 106 173 163 91 179 17 400
-161 485 -80 38 -194 45 -273 16z m83 -211 c34 -70 41 -79 60 -74 34 8 49 -16
35 -56 -9 -24 -9 -45 0 -82 11 -48 10 -50 -22 -89 -46 -55 -67 -49 -67 21 0
37 -35 147 -59 187 -18 29 -22 31 -44 20 -19 -9 -22 -15 -14 -28 7 -11 6 -35
-2 -78 -11 -55 -10 -66 4 -88 9 -13 15 -26 13 -28 -2 -1 -33 -5 -70 -9 -76 -7
-82 -1 -44 44 14 18 28 54 36 95 7 36 18 71 24 78 6 7 12 36 14 65 2 47 0 54
-18 59 -20 5 -26 23 -13 36 3 4 34 7 68 7 l61 0 38 -80z m219 74 c3 -4 2 -15
-4 -25 -17 -33 47 -283 81 -314 11 -10 20 -22 20 -27 0 -4 -36 -8 -80 -8 -44
0 -80 2 -80 4 0 2 6 16 14 31 12 24 12 36 -8 108 -20 73 -25 82 -44 79 -32 -5
-39 24 -16 65 18 34 18 36 0 49 -35 25 -12 44 52 44 32 0 62 -3 65 -6z"/>
<path d="M2394 781 c14 -15 16 -29 11 -60 -7 -44 0 -51 21 -23 13 16 16 15 42
-15 33 -39 70 -137 79 -211 6 -50 7 -52 24 -36 11 10 19 23 19 30 0 7 5 14 10
16 7 2 6 17 -3 43 -13 35 -12 45 1 78 8 21 12 41 8 44 -9 9 -36 -17 -36 -36 0
-9 -20 26 -44 77 -23 52 -49 98 -57 103 -8 5 -32 9 -53 9 -38 0 -39 -1 -22
-19z"/>
<path d="M2380 610 c0 -10 -4 -29 -9 -42 -5 -13 -12 -34 -15 -48 -3 -14 -15
-36 -28 -49 l-22 -24 25 6 c13 4 34 7 47 7 20 0 21 3 11 21 -8 15 -8 33 0 64
14 55 14 85 1 85 -5 0 -10 -9 -10 -20z"/>
<path d="M2644 784 c20 -19 20 -16 -1 -59 -18 -38 -12 -55 11 -36 13 11 19 0
42 -73 15 -51 25 -100 22 -121 l-4 -35 50 0 49 0 -21 23 c-24 26 -72 207 -72
273 l0 44 -46 0 c-41 0 -44 -1 -30 -16z"/>
<path d="M1670 931 c0 -16 5 -31 12 -33 8 -3 5 -11 -10 -23 -12 -11 -22 -23
-22 -28 0 -30 473 -199 514 -184 7 3 16 20 19 39 3 18 8 40 12 49 5 14 -7 20
-72 34 -94 21 -230 69 -338 121 -125 59 -115 57 -115 25z m103 -48 c3 -5 1
-17 -4 -28 -4 -11 -8 -16 -8 -11 -1 5 -8 3 -16 -4 -9 -7 -18 -10 -22 -6 -3 3
-1 6 5 6 6 0 16 10 23 21 7 13 7 19 1 15 -6 -3 -13 -2 -17 4 -3 5 3 10 14 10
11 0 22 -3 24 -7z m81 -49 c-7 -3 -10 -13 -7 -23 3 -10 -1 -22 -7 -26 -9 -5
-10 -1 -5 14 5 15 2 21 -9 21 -9 0 -16 5 -16 10 0 6 12 10 28 9 15 0 22 -3 16
-5z m89 -40 c-5 -14 -3 -15 15 -5 20 11 22 9 22 -18 0 -16 -5 -33 -10 -36 -7
-4 -9 2 -4 19 7 29 -7 34 -26 11 -7 -9 -15 -14 -17 -12 -5 5 15 57 21 57 3 0
3 -7 -1 -16z m107 -35 c-11 -8 -8 -9 13 -5 19 5 27 2 27 -7 0 -21 -19 -34 -45
-30 -32 7 -40 42 -12 52 27 10 37 4 17 -10z"/>
<path d="M2050 740 c-23 -7 -23 -8 -3 -9 12 -1 25 4 28 9 3 6 5 10 3 9 -2 -1
-14 -5 -28 -9z"/>
<path d="M3027 4693 c-13 -12 -7 -63 7 -63 15 0 26 21 26 51 0 18 -20 26 -33
12z"/>
<path d="M3219 4613 c-13 -35 5 -55 26 -27 8 10 15 27 15 37 0 27 -29 20 -41
-10z"/>
<path d="M3320 4584 c-13 -34 -13 -44 3 -44 16 0 40 47 32 61 -11 16 -25 10
-35 -17z"/>
<path d="M3510 4501 c-13 -25 -13 -51 0 -51 12 0 30 33 30 54 0 22 -17 20 -30
-3z"/>
<path d="M3598 4445 c-17 -38 5 -56 27 -22 16 25 14 47 -6 47 -5 0 -15 -11
-21 -25z"/>
<path d="M3857 4282 c-18 -20 -23 -52 -8 -52 14 0 52 51 45 61 -8 14 -19 11
-37 -9z"/>
</g>
</svg>
